<?xml version="1.0" encoding="UTF-8" standalone="no"?>
<svg
   class="ionicon"
   viewBox="0 0 512 512"
   version="1.1"
   id="svg2"
   sodipodi:docname="pie-chart-sharp-listen.svg"
   inkscape:version="1.3 (0e150ed6c4, 2023-07-21)"
   xmlns:inkscape="http://www.inkscape.org/namespaces/inkscape"
   xmlns:sodipodi="http://sodipodi.sourceforge.net/DTD/sodipodi-0.dtd"
   xmlns="http://www.w3.org/2000/svg"
   xmlns:svg="http://www.w3.org/2000/svg">
  <defs
     id="defs2" />
  <sodipodi:namedview
     id="namedview2"
     pagecolor="#ffffff"
     bordercolor="#000000"
     borderopacity="0.25"
     inkscape:showpageshadow="2"
     inkscape:pageopacity="0.0"
     inkscape:pagecheckerboard="0"
     inkscape:deskcolor="#d1d1d1"
     inkscape:zoom="1.6738281"
     inkscape:cx="201.63361"
     inkscape:cy="270.93583"
     inkscape:window-width="2560"
     inkscape:window-height="1351"
     inkscape:window-x="1911"
     inkscape:window-y="-9"
     inkscape:window-maximized="1"
     inkscape:current-layer="svg2" />
  <path
     d="m 239.772,50.01 v 220.65 l 209.38,93.67 a 208.31,208.31 0 0 1 -177.38,99.22 c -114.69,0 -208,-93.31 -208,-208 0,-103.81 76.45,-190.1 176,-205.54 z"
     id="path2" />
  <path
     d="M 414.403,119.4625 C 395.1745,100.7425 369.727,90.01 344.581,90.01 c -25.146,0 -50.5935,10.7325 -69.822,29.4525 -19.9755,19.449 -30.978,44.3475 -30.978,71.3475 0,27 12.078,53.3205 20.439,68.5125 8.361,15.192 19.611,32.2875 29.961,32.2875 14.4,0 43.2,-14.4 43.2,-14.4 l -50.4,-93.6 -24.489,14.2785 a 79.2315,79.2315 0 0 1 -0.45,-8.478 c 0,-21.8565 8.694,-42.345 25.2675,-58.5 C 303.289,115.363 323.881,107.11 344.581,107.11 c 20.7,0 41.2785,8.253 57.2715,23.8185 16.5735,16.137 25.263,36.6255 25.263,58.5 a 79.002,79.002 0 0 1 -0.45,8.469 L 402.181,183.61 l -50.4,93.6 c 0,0 28.8,14.4 43.2,14.4 10.35,0 21.6,-17.1 29.961,-32.2875 8.361,-15.1875 20.439,-41.5125 20.439,-68.5125 0,-27 -11.0025,-51.8985 -30.978,-71.3475 z"
     id="path1"
     style="stroke-width:0.45" />
</svg>
