<?xml version="1.0" encoding="UTF-8" standalone="no"?>
<svg
   class="ionicon"
   viewBox="0 0 300 100"
   version="1.1"
   id="svg2"
   sodipodi:docname="app_logo.svg"
   inkscape:version="1.3 (0e150ed6c4, 2023-07-21)"
   width="300"
   height="100"
   inkscape:export-filename="featureGraphic.png"
   inkscape:export-xdpi="96"
   inkscape:export-ydpi="96"
   xmlns:inkscape="http://www.inkscape.org/namespaces/inkscape"
   xmlns:sodipodi="http://sodipodi.sourceforge.net/DTD/sodipodi-0.dtd"
   xmlns:xlink="http://www.w3.org/1999/xlink"
   xmlns="http://www.w3.org/2000/svg"
   xmlns:svg="http://www.w3.org/2000/svg">
  <defs
     id="defs2">
    <color-profile
       name="sRGB-IEC61966-2.1"
       xlink:href="../../../WINDOWS/system32/spool/drivers/color/sRGB%20Color%20Space%20Profile.icm"
       id="color-profile2" />
  </defs>
  <sodipodi:namedview
     id="namedview2"
     pagecolor="#ffffff"
     bordercolor="#000000"
     borderopacity="0.25"
     inkscape:showpageshadow="2"
     inkscape:pageopacity="0.0"
     inkscape:pagecheckerboard="0"
     inkscape:deskcolor="#d1d1d1"
     showguides="false"
     inkscape:zoom="0.59178762"
     inkscape:cx="504.40393"
     inkscape:cy="501.02434"
     inkscape:window-width="2560"
     inkscape:window-height="1351"
     inkscape:window-x="1911"
     inkscape:window-y="-9"
     inkscape:window-maximized="1"
     inkscape:current-layer="g1"
     inkscape:document-units="mm" />
  <g
     id="g1"
     transform="translate(130.26806,23.229544)">
    <rect
       style="fill:#000000;stroke-width:0.168464"
       id="rect1"
       width="299.99924"
       height="100"
       x="-130.26768"
       y="-23.229544"
       inkscape:label="rect1" />
    <g
       id="g3"
       transform="matrix(0.292968,0,0,0.292968,-91.228163,-39.666033)">
      <path
         style="font-size:360px;font-family:'Varela Round';-inkscape-font-specification:'Varela Round';text-align:center;text-anchor:middle;fill:#ffffff;stroke-width:0.528253"
         d="m 235.95511,294.09108 q -3.61326,0 -6.08548,-2.47223 -2.47223,-2.47222 -2.47223,-6.08548 V 172.00113 q 0,-5.13463 3.61325,-8.74788 3.61326,-3.80343 8.74788,-3.80343 h 6.27565 q 3.80343,0 7.03634,2.28206 3.23291,2.28205 4.56411,5.70513 l 43.16888,107.63694 43.16888,-107.63694 q 1.52137,-3.42308 4.56411,-5.70513 3.23291,-2.28206 7.03633,-2.28206 h 6.27565 q 5.13463,0 8.74788,3.80343 3.61326,3.61325 3.61326,8.74788 v 113.53224 q 0,3.61326 -2.47223,6.08548 -2.47223,2.47223 -6.08548,2.47223 -3.61325,0 -6.27565,-2.47223 -2.47223,-2.47222 -2.47223,-6.08548 V 177.51609 l -43.92956,108.5878 q -1.52137,3.61325 -4.75428,5.8953 -3.23291,2.09189 -7.41668,2.09189 -4.18377,0 -7.41668,-2.09189 -3.23291,-2.28205 -4.75428,-5.8953 l -43.92957,-108.5878 v 108.01728 q 0,3.61326 -2.66239,6.08548 -2.47223,2.47223 -6.08548,2.47223 z m 228.77596,0.95086 q -9.50857,0 -19.2073,-3.04275 -9.69874,-3.04274 -17.68593,-9.31839 -7.98719,-6.46582 -12.93165,-16.16455 -4.75428,-9.88891 -4.75428,-23.2009 V 168.1977 q 0,-3.61325 2.47223,-6.08548 2.47223,-2.6624 6.08548,-2.6624 3.61325,0 6.08548,2.6624 2.6624,2.47223 2.6624,6.08548 v 75.68816 q 0,11.79062 5.32479,19.77782 5.51497,7.79702 14.07268,11.79061 8.5577,3.80343 17.8761,3.80343 9.31839,0 17.8761,-3.80343 8.5577,-3.99359 13.88249,-11.79061 5.51497,-7.9872 5.51497,-19.77782 V 168.1977 q 0,-3.61325 2.47223,-6.08548 2.47222,-2.6624 6.08548,-2.6624 3.61325,0 6.08548,2.6624 2.66239,2.47223 2.66239,6.08548 v 75.11765 q 0,13.31199 -4.94445,23.2009 -4.75428,9.69873 -12.74147,16.16455 -7.9872,6.27565 -17.68593,9.31839 -9.69873,3.04275 -19.20729,3.04275 z m 132.35909,0 q -14.26285,0 -25.67312,-2.6624 -11.22011,-2.85257 -19.58764,-6.46583 -2.09189,-0.95085 -3.80343,-3.04274 -1.52137,-2.28205 -1.52137,-4.75428 0,-3.23291 2.09188,-5.51496 2.09189,-2.47223 5.70514,-2.47223 1.90171,0 3.61326,0.76068 6.46582,2.85257 15.78421,5.3248 9.50856,2.47223 21.67953,2.47223 9.50856,0 16.92524,-1.90172 7.60685,-2.09188 11.98079,-6.84616 4.37394,-4.94445 4.37394,-13.12182 0,-6.08548 -4.37394,-9.69873 -4.37394,-3.80343 -11.60045,-6.27566 -7.22651,-2.47222 -15.97439,-4.56411 -8.5577,-2.09188 -17.11541,-4.56411 -8.55771,-2.66239 -15.78421,-6.84616 -7.22651,-4.18377 -11.60045,-10.64959 -4.37394,-6.656 -4.37394,-16.73507 0,-10.6496 5.51497,-19.39747 5.70513,-8.93805 16.73507,-14.26285 11.02993,-5.32479 27.00432,-5.32479 11.2201,0 20.72867,1.71154 9.50856,1.71154 17.11541,4.56411 2.09188,0.76068 3.61325,2.47222 1.71155,1.71155 1.71155,5.13463 0,2.85257 -2.09189,5.51496 -1.90171,2.47223 -5.51497,2.47223 -0.76068,0 -1.52137,-0.19017 -0.76068,-0.38034 -1.52137,-0.57051 -6.46582,-2.28206 -14.26284,-3.61326 -7.60685,-1.52137 -16.35473,-1.52137 -14.45302,0 -24.15175,5.51497 -9.69874,5.51497 -9.69874,16.16456 0,7.03633 4.37394,11.2201 4.37394,4.18377 11.60045,6.656 7.22651,2.47222 15.78422,4.56411 8.5577,1.90171 17.11541,4.37393 8.55771,2.47223 15.78422,6.656 7.2265,3.9936 11.60044,10.83976 4.37394,6.656 4.37394,17.49576 0,10.64959 -6.08548,19.2073 -5.89531,8.36753 -16.92524,13.12181 -10.83976,4.75429 -25.67312,4.75429 z m 83.86537,-0.95086 q -3.61326,0 -6.08548,-2.47223 -2.47223,-2.47222 -2.47223,-6.08548 V 168.1977 q 0,-3.61325 2.47223,-6.08548 2.47222,-2.6624 6.08548,-2.6624 3.61325,0 6.08548,2.6624 2.6624,2.47223 2.6624,6.08548 v 117.33567 q 0,3.61326 -2.6624,6.08548 -2.47223,2.47223 -6.08548,2.47223 z m 104.21385,0.95086 q -18.82695,0 -34.04065,-8.17737 -15.02353,-8.36754 -23.77141,-23.58124 -8.74788,-15.40387 -8.74788,-36.51288 0,-21.29918 8.74788,-36.51288 8.74788,-15.2137 23.77141,-23.39107 15.2137,-8.36753 34.04065,-8.36753 14.07268,0 24.34192,3.42308 10.26925,3.42308 19.01713,8.36753 1.90171,0.95086 2.85257,2.6624 1.14103,1.52137 1.3312,4.18377 0.19017,3.04274 -1.90171,5.3248 -2.09189,2.28205 -5.70514,2.28205 -1.90171,0 -3.42308,-0.76068 -7.60686,-3.9936 -15.59405,-6.46583 -7.98719,-2.47222 -19.2073,-2.47222 -16.73507,0 -28.14534,6.84616 -11.41028,6.84617 -17.11542,18.63679 -5.70514,11.60044 -5.70514,26.24363 0,14.64319 5.70514,26.43381 5.70514,11.60044 17.11542,18.44661 11.41027,6.84616 28.14534,6.84616 11.22011,0 19.2073,-2.47222 7.98719,-2.47223 15.59405,-6.46582 1.52137,-0.76069 3.42308,-0.76069 3.61325,0 5.70514,2.28206 2.09188,2.28205 1.90171,5.32479 -0.19017,2.6624 -1.3312,4.37394 -0.95086,1.52137 -2.85257,2.47223 -8.74788,4.94445 -19.01713,8.36753 -10.26924,3.42309 -24.34192,3.42309 z"
         id="text1-7-4"
         aria-label="MUSIC" />
      <g
         id="g2">
        <path
           d="m 11.347837,277.56199 20.464944,-12.73261 16.282909,-9.74544 16.282917,-9.74544 16.282909,-9.74545 c 6.368667,-3.80963 6.368667,-13.83555 0,-17.64519 L -49.601789,139.98431 c -7.356538,-4.39291 -16.28948,1.42927 -16.28948,10.59341 v 152.38547 c 0,9.16415 8.932942,14.98633 16.28948,10.59342 l 16.282918,-9.74544 12.323483,-7.26245"
           style="fill:none;stroke:#4fc17c;stroke-width:18.6944;stroke-linecap:round;stroke-miterlimit:10;stroke-dasharray:none;stroke-opacity:1"
           id="path1"
           sodipodi:nodetypes="cccccccssccc" />
        <line
           x1="134.71745"
           y1="134.86945"
           x2="134.71745"
           y2="318.67148"
           style="fill:none;stroke:#4fc17c;stroke-width:18.2862;stroke-linecap:round;stroke-miterlimit:10;stroke-dasharray:none;stroke-opacity:1"
           id="line1" />
      </g>
    </g>
  </g>
</svg>
