<?xml version="1.0" encoding="UTF-8" standalone="no"?>
<svg
   class="ionicon"
   viewBox="0 0 640 360"
   viewport-fill="#000000"
   version="1.1"
   id="svg2"
   sodipodi:docname="banner_tv_foreground.svg"
   inkscape:version="1.3 (0e150ed6c4, 2023-07-21)"
   width="640"
   height="360"
   xmlns:inkscape="http://www.inkscape.org/namespaces/inkscape"
   xmlns:sodipodi="http://sodipodi.sourceforge.net/DTD/sodipodi-0.dtd"
   xmlns:xlink="http://www.w3.org/1999/xlink"
   xmlns="http://www.w3.org/2000/svg"
   xmlns:svg="http://www.w3.org/2000/svg">
  <defs
     id="defs2">
    <color-profile
       name="sRGB-IEC61966-2.1"
       xlink:href="file:///C:/WINDOWS/system32/spool/drivers/color/sRGB%20Color%20Space%20Profile.icm"
       id="color-profile2" />
  </defs>
  <sodipodi:namedview
     id="namedview2"
     pagecolor="#000000"
     bordercolor="#000000"
     borderopacity="0.25"
     inkscape:showpageshadow="2"
     inkscape:pageopacity="0.0"
     inkscape:pagecheckerboard="0"
     inkscape:deskcolor="#d1d1d1"
     showguides="false"
     inkscape:zoom="0.485775"
     inkscape:cx="944.88189"
     inkscape:cy="276.87716"
     inkscape:window-width="1920"
     inkscape:window-height="1001"
     inkscape:window-x="-9"
     inkscape:window-y="-9"
     inkscape:window-maximized="1"
     inkscape:current-layer="g3"
     inkscape:document-units="mm" />
  <g
     id="g1"
     transform="translate(130.26806,23.229544)">
    <g
       id="g3"
       transform="matrix(0.33015845,0,0,0.33015845,-73.980256,72.099505)">
      <g
         id="g2">
        <path
           style="fill:#4fc17c;fill-opacity:1;stroke:none;stroke-width:0.844898;stroke-opacity:1"
           d="m -19.613312,439.40674 c -6.16509,-1.29334 -12.60211,-4.75368 -17.55282,-9.43585 -5.52063,-5.22119 -8.36893,-9.75922 -10.575769,-16.84982 -1.534181,-4.92934 -1.591783,-10.59709 -1.591783,-156.623 0,-146.02592 0.0576,-151.69367 1.591783,-156.623 2.206839,-7.090597 5.055139,-11.628632 10.575769,-16.849818 10.06273,-9.516909 23.69221,-12.475461 35.99162,-7.812703 3.751088,1.422054 249.475962,148.090801 256.848902,153.308491 2.09113,1.47984 5.41686,5.08617 7.39051,8.01407 4.89696,7.2646 6.41112,12.86974 5.96985,22.09932 -0.29584,6.18759 -0.7947,8.27015 -3.10536,12.96377 -1.51409,3.07556 -4.53906,7.39968 -6.72215,9.60916 -2.96847,3.00436 -22.22545,14.9348 -76.37657,47.31824 -71.4748,42.74333 -72.46551,43.30101 -76.92453,43.30101 -11.644072,0 -19.173672,-11.99554 -14.103672,-22.46877 1.66245,-3.43418 4.46972,-5.20979 73.976322,-46.79037 l 72.24829,-43.22074 -0.25899,-3.00923 -0.259,-3.00924 -124.19996,-74.36415 c -68.309982,-40.90028 -125.018212,-74.53769 -126.018302,-74.7498 -1.11942,-0.23742 -2.49962,0.29563 -3.59081,1.38683 l -1.77249,1.77248 v 149.12445 c 0,147.99792 0.0128,149.13721 1.6898,150.81424 0.92939,0.92939 2.29499,1.6898 3.03467,1.6898 0.73967,0 16.611038,-9.16387 35.269708,-20.36417 l 33.924842,-20.36415 4.78032,0.34577 c 11.49325,0.83135 18.25676,13.18204 12.65938,23.11704 -1.74053,3.08933 -5.43062,5.5272 -36.719312,24.25872 -19.13137,11.45333 -36.425248,21.40096 -38.430838,22.10585 -4.72292,1.65992 -13.11708,2.27736 -17.74941,1.30557 z"
           id="path4" />
        <path
           style="fill:#4fc17c;fill-opacity:1;stroke:none;stroke-width:0.844898;stroke-opacity:1"
           d="m 327.62023,446.10888 c -1.74375,-0.92054 -4.21507,-3.25225 -5.49184,-5.18157 L 319.807,437.41945 V 256.48793 75.556418 l 2.32441,-3.51242 c 7.15771,-10.81604 23.22314,-8.49695 27.52385,3.97313 1.43347,4.15639 1.30149,357.532462 -0.135,361.492642 -1.29116,3.55951 -5.27528,7.74927 -8.74912,9.20074 -3.86828,1.61627 -9.43174,1.36174 -13.15091,-0.60163 z"
           id="path5" />
      </g>
      <path
         style="font-size:360px;font-family:'Varela Round';-inkscape-font-specification:'Varela Round';text-align:center;text-anchor:middle;fill:#ffffff"
         d="m 517.11305,383.89549 q -6.84,0 -11.52,-4.68 -4.68,-4.68 -4.68,-11.52 v -214.92 q 0,-9.72 6.84,-16.56 6.84,-7.2 16.56,-7.2 h 11.88 q 7.2,0 13.32,4.32 6.12,4.32 8.64,10.8 l 81.72,203.76 81.72,-203.76 q 2.88,-6.48 8.64,-10.8 6.12,-4.32 13.32,-4.32 h 11.88 q 9.72,0 16.56,7.2 6.84,6.84 6.84,16.56 v 214.92 q 0,6.84 -4.68,11.52 -4.68,4.68 -11.52,4.68 -6.84,0 -11.88,-4.68 -4.68,-4.68 -4.68,-11.52 v -204.48 l -83.16,205.56 q -2.88,6.84 -9,11.16 -6.12,3.96 -14.04,3.96 -7.92,0 -14.04,-3.96 -6.12,-4.32 -9,-11.16 l -83.16,-205.56 v 204.48 q 0,6.84 -5.04,11.52 -4.68,4.68 -11.52,4.68 z m 433.07986,1.8 q -18,0 -36.36,-5.76 -18.36,-5.76 -33.48,-17.64 -15.12,-12.24 -24.48,-30.6 -9,-18.72 -9,-43.92 v -142.2 q 0,-6.84 4.68,-11.52 4.68,-5.04 11.52,-5.04 6.84,0 11.52,5.04 5.04,4.68 5.04,11.52 v 143.28 q 0,22.32 10.08,37.44 10.44,14.76 26.64,22.32 16.2,7.2 33.84,7.2 17.64,0 33.84,-7.2 16.19999,-7.56 26.27999,-22.32 10.44,-15.12 10.44,-37.44 v -143.28 q 0,-6.84 4.68,-11.52 4.68,-5.04 11.52,-5.04 6.84,0 11.52,5.04 5.04,4.68 5.04,11.52 v 142.2 q 0,25.2 -9.36,43.92 -9,18.36 -24.12,30.6 -15.12,11.88 -33.47999,17.64 -18.36,5.76 -36.36,5.76 z m 250.55979,0 q -27,0 -48.6,-5.04 -21.24,-5.4 -37.08,-12.24 -3.96,-1.8 -7.2,-5.76 -2.88,-4.32 -2.88,-9 0,-6.12 3.96,-10.44 3.96,-4.68 10.8,-4.68 3.6,0 6.84,1.44 12.24,5.4 29.88,10.08 18,4.68 41.04,4.68 18,0 32.04,-3.6 14.4,-3.96 22.68,-12.96 8.28,-9.36 8.28,-24.84 0,-11.52 -8.28,-18.36 -8.28,-7.2 -21.96,-11.88 -13.68,-4.68 -30.24,-8.64 -16.2,-3.96 -32.4,-8.64 -16.2,-5.04 -29.88,-12.96 -13.68,-7.92 -21.96,-20.16 -8.28,-12.6 -8.28,-31.68 0,-20.16 10.44,-36.72 10.8,-16.92 31.68,-27 20.88,-10.08 51.12,-10.08 21.24,0 39.24,3.24 18,3.24 32.4,8.64 3.96,1.44 6.84,4.68 3.24,3.24 3.24,9.72 0,5.4 -3.96,10.44 -3.6,4.68 -10.44,4.68 -1.44,0 -2.88,-0.36 -1.44,-0.72 -2.88,-1.08 -12.24,-4.32 -27,-6.84 -14.4,-2.88 -30.96,-2.88 -27.36,0 -45.72,10.44 -18.36,10.44 -18.36,30.6 0,13.32 8.28,21.24 8.28,7.92 21.96,12.6 13.68,4.68 29.88,8.64 16.2,3.6 32.4,8.28 16.2,4.68 29.88,12.6 13.68,7.56 21.96,20.52 8.28,12.6 8.28,33.12 0,20.16 -11.52,36.36 -11.16,15.84 -32.04,24.84 -20.52,9 -48.6,9 z m 158.7597,-1.8 q -6.84,0 -11.52,-4.68 -4.68,-4.68 -4.68,-11.52 v -222.12 q 0,-6.84 4.68,-11.52 4.68,-5.04 11.52,-5.04 6.84,0 11.52,5.04 5.04,4.68 5.04,11.52 v 222.12 q 0,6.84 -5.04,11.52 -4.68,4.68 -11.52,4.68 z m 197.28,1.8 q -35.64,0 -64.44,-15.48 -28.44,-15.84 -45,-44.64 -16.56,-29.16 -16.56,-69.12 0,-40.32 16.56,-69.12 16.56,-28.8 45,-44.28 28.8,-15.84 64.44,-15.84 26.64,0 46.08,6.48 19.44,6.48 36,15.84 3.6,1.8 5.4,5.04 2.16,2.88 2.52,7.92 0.36,5.76 -3.6,10.08 -3.96,4.32 -10.8,4.32 -3.6,0 -6.48,-1.44 -14.4,-7.56 -29.52,-12.24 -15.12,-4.68 -36.36,-4.68 -31.68,0 -53.28,12.96 -21.6,12.96 -32.4,35.28 -10.8,21.96 -10.8,49.68 0,27.72 10.8,50.04 10.8,21.96 32.4,34.92 21.6,12.96 53.28,12.96 21.24,0 36.36,-4.68 15.12,-4.68 29.52,-12.24 2.88,-1.44 6.48,-1.44 6.84,0 10.8,4.32 3.96,4.32 3.6,10.08 -0.36,5.04 -2.52,8.28 -1.8,2.88 -5.4,4.68 -16.56,9.36 -36,15.84 -19.44,6.48 -46.08,6.48 z"
         id="text1-7-4"
         aria-label="MUSIC" />
    </g>
  </g>
</svg>
