<?xml version="1.0" encoding="UTF-8" standalone="no"?>
<svg
   width="108.0px"
   height="108.0px"
   viewBox="0 0 108.0 108.0"
   version="1.1"
   id="SVGRoot"
   sodipodi:docname="ic_launcher_foreground.svg"
   inkscape:version="1.3 (0e150ed6c4, 2023-07-21)"
   xmlns:inkscape="http://www.inkscape.org/namespaces/inkscape"
   xmlns:sodipodi="http://sodipodi.sourceforge.net/DTD/sodipodi-0.dtd"
   xmlns="http://www.w3.org/2000/svg"
   xmlns:svg="http://www.w3.org/2000/svg"
   xmlns:rdf="http://www.w3.org/1999/02/22-rdf-syntax-ns#"
   xmlns:cc="http://creativecommons.org/ns#"
   xmlns:dc="http://purl.org/dc/elements/1.1/">
  <defs
     id="defs1600" />
  <sodipodi:namedview
     id="base"
     pagecolor="#0e0e0e"
     bordercolor="#666666"
     borderopacity="1.0"
     inkscape:pageopacity="0.0"
     inkscape:pageshadow="2"
     inkscape:zoom="5.6"
     inkscape:cx="56.071429"
     inkscape:cy="40.446429"
     inkscape:document-units="px"
     inkscape:current-layer="g2"
     inkscape:document-rotation="0"
     showgrid="true"
     inkscape:window-width="1920"
     inkscape:window-height="1001"
     inkscape:window-x="-9"
     inkscape:window-y="-9"
     inkscape:window-maximized="1"
     inkscape:pagecheckerboard="0"
     inkscape:snap-grids="true"
     inkscape:snap-center="true"
     inkscape:snap-object-midpoints="true"
     inkscape:snap-midpoints="true"
     inkscape:snap-smooth-nodes="true"
     inkscape:snap-intersection-paths="true"
     inkscape:object-paths="true"
     inkscape:snap-bbox="true"
     inkscape:bbox-paths="true"
     inkscape:bbox-nodes="true"
     inkscape:snap-bbox-edge-midpoints="true"
     inkscape:snap-bbox-midpoints="true"
     inkscape:showpageshadow="2"
     inkscape:deskcolor="#d1d1d1">
    <inkscape:grid
       type="xygrid"
       id="grid2170"
       originx="0"
       originy="0"
       spacingy="1"
       spacingx="1"
       units="px"
       visible="true" />
  </sodipodi:namedview>
  <metadata
     id="metadata1603">
    <rdf:RDF>
      <cc:Work
         rdf:about="">
        <dc:format>image/svg+xml</dc:format>
        <dc:type
           rdf:resource="http://purl.org/dc/dcmitype/StillImage" />
      </cc:Work>
    </rdf:RDF>
  </metadata>
  <g
     id="g2"
     transform="matrix(0.10290352,0,0,0.10290352,29.934301,27.656699)">
    <path
       id="path3"
       style="font-size:548.755px;font-family:'Varela Round';-inkscape-font-specification:'Varela Round';fill:#ffffff;fill-opacity:1;stroke-width:30.3779;stroke-linecap:square"
       d="m 438.42595,113.69684 q -11.52385,0 -19.75518,-8.23132 -8.23132,-8.231327 -8.23132,-19.755182 v -2.19502 q 0,-11.523856 8.23132,-19.755181 8.23133,-8.231325 19.75518,-8.231325 h 3.29253 q 11.52386,0 19.75519,8.231325 8.23132,8.231325 8.23132,19.755181 v 2.19502 q 0,11.523855 -8.23132,19.755182 -8.23133,8.23132 -19.75519,8.23132 z m 1.09751,339.67935 q -10.42634,0 -17.56016,-7.13381 -7.13381,-7.13382 -7.13381,-17.56016 v -235.4159 q 0,-10.9751 7.13381,-18.10892 7.13382,-7.13381 17.56016,-7.13381 10.9751,0 18.10892,7.13381 7.13382,7.13382 7.13382,18.10892 v 235.4159 q 0,10.42634 -7.13382,17.56016 -7.13382,7.13381 -18.10892,7.13381 z M 46.794922,64.257812 C 38.699631,64.531888 30.831907,66.948828 24.40625,71.130859 11.554936,79.494923 3.2480469,94.481851 3.2480469,111 v 313.31445 a 24,24 0 0 0 24.0000001,24 24,24 0 0 0 24,-24 V 114.62109 L 287.46875,256 l -24.63281,14.74219 -30.98828,18.54687 -31.16602,18.6543 -14.14062,8.79883 a 24,24 0 0 0 -7.69532,33.05859 24,24 0 0 0 33.0586,7.69531 l 13.78515,-8.58007 30.8086,-18.43946 30.98828,-18.54687 30.98242,-18.54297 0.004,-0.002 c 28.03364,-16.77302 28.03401,-57.99318 0.002,-74.76758 l -0.002,-0.002 -247.908207,-148.374996 -0.01172,-0.0059 C 63.213519,65.851816 54.890213,63.983737 46.794922,64.257812 Z M 114.06498,413.42177 c -7.68256,0 -14.267618,-2.74377 -19.755168,-8.23132 -5.487554,-5.48755 -8.231324,-12.07261 -8.231324,-19.75518 v -2.19502 c 0,-7.68257 2.74377,-14.26763 8.231324,-19.75518 5.48755,-5.48755 12.072608,-8.23133 19.755168,-8.23133 h 3.29253 c 7.68257,0 14.26764,2.74378 19.75519,8.23133 5.48755,5.48755 8.23132,12.07261 8.23132,19.75518 v 2.19502 c 0,7.68257 -2.74377,14.26763 -8.23132,19.75518 -5.48755,5.48755 -12.07262,8.23132 -19.75519,8.23132 z"
       transform="translate(-2.6101828,1.5474981)" />
  </g>
</svg>
