<?xml version="1.0" encoding="UTF-8" standalone="no"?>
<svg
   width="512"
   height="512"
   viewBox="0 0 512 512"
   version="1.1"
   id="svg5"
   sodipodi:docname="add2playlist.svg"
   xml:space="preserve"
   inkscape:version="1.3 (0e150ed6c4, 2023-07-21)"
   xmlns:inkscape="http://www.inkscape.org/namespaces/inkscape"
   xmlns:sodipodi="http://sodipodi.sourceforge.net/DTD/sodipodi-0.dtd"
   xmlns="http://www.w3.org/2000/svg"
   xmlns:svg="http://www.w3.org/2000/svg"><defs
     id="defs5" /><sodipodi:namedview
     id="namedview5"
     pagecolor="#ffffff"
     bordercolor="#000000"
     borderopacity="0.25"
     inkscape:showpageshadow="2"
     inkscape:pageopacity="0.0"
     inkscape:pagecheckerboard="0"
     inkscape:deskcolor="#d1d1d1"
     inkscape:zoom="0.4674915"
     inkscape:cx="-37.433836"
     inkscape:cy="556.15985"
     inkscape:window-width="2560"
     inkscape:window-height="1351"
     inkscape:window-x="2551"
     inkscape:window-y="-9"
     inkscape:window-maximized="1"
     inkscape:current-layer="svg5" /><g
     id="g8"
     transform="translate(0.9800655,-28.070895)"><g
       id="g5"
       style="opacity:1"
       transform="translate(-42.351551)"><path
         style="color:#000000;fill:#000000;stroke-linecap:round;stroke-linejoin:round;-inkscape-stroke:none"
         d="m 72,120 a 24,24 0 0 0 -24,24 24,24 0 0 0 24,24 h 288 a 24,24 0 0 0 24,-24 24,24 0 0 0 -24,-24 z"
         id="line1" /><path
         style="color:#000000;fill:#000000;stroke-linecap:round;stroke-linejoin:round;-inkscape-stroke:none"
         d="m 72,232 a 24,24 0 0 0 -24,24 24,24 0 0 0 24,24 h 288 a 24,24 0 0 0 24,-24 24,24 0 0 0 -24,-24 z"
         id="line2" /><path
         style="color:#000000;fill:#000000;stroke-linecap:round;stroke-linejoin:round;-inkscape-stroke:none"
         d="m 72,344 c -13.254834,0 -24,10.74517 -24,24 0,13.25483 10.745166,24 24,24 h 198 c 13.25483,0 24,-10.74517 24,-24 0,-13.25483 -10.74517,-24 -24,-24 z"
         id="line3"
         sodipodi:nodetypes="sssssss" /></g><g
       id="g7"
       transform="rotate(-90,372.73116,225.35007)"><path
         style="color:#000000;fill:#000000;stroke-width:1.22476;stroke-linecap:round;stroke-linejoin:round;-inkscape-stroke:none"
         d="m 173.93946,227.46232 c -13.25479,1.3e-4 -23.99988,10.74522 -24.00002,24.00001 1.4e-4,13.25479 10.74523,23.99988 24.00002,24.00001 h 163.09596 c 13.25479,-1.3e-4 23.99988,-10.74522 24.00002,-24.00001 -1.4e-4,-13.25479 -10.74523,-23.99988 -24.00002,-24.00001 z"
         id="path7"
         sodipodi:nodetypes="ccccccc" /><path
         style="color:#000000;fill:#000000;stroke-width:1.22476;stroke-linecap:round;stroke-linejoin:round;-inkscape-stroke:none"
         d="m 173.93946,227.46232 c -13.25479,1.3e-4 -23.99988,10.74522 -24.00002,24.00001 1.4e-4,13.25479 10.74523,23.99988 24.00002,24.00001 h 163.09596 c 13.25479,-1.3e-4 23.99988,-10.74522 24.00002,-24.00001 -1.4e-4,-13.25479 -10.74523,-23.99988 -24.00002,-24.00001 z"
         id="line2-7"
         sodipodi:nodetypes="ccccccc"
         transform="rotate(90,255.48744,251.46233)" /></g></g></svg>
