<?xml version="1.0" encoding="UTF-8" standalone="no"?>
<svg
   class="ionicon"
   viewBox="0 0 512 512"
   version="1.1"
   id="svg2"
   sodipodi:docname="duplicate.svg"
   inkscape:version="1.3 (0e150ed6c4, 2023-07-21)"
   xmlns:inkscape="http://www.inkscape.org/namespaces/inkscape"
   xmlns:sodipodi="http://sodipodi.sourceforge.net/DTD/sodipodi-0.dtd"
   xmlns="http://www.w3.org/2000/svg"
   xmlns:svg="http://www.w3.org/2000/svg">
  <defs
     id="defs2" />
  <sodipodi:namedview
     id="namedview2"
     pagecolor="#ffffff"
     bordercolor="#000000"
     borderopacity="0.25"
     inkscape:showpageshadow="2"
     inkscape:pageopacity="0.0"
     inkscape:pagecheckerboard="0"
     inkscape:deskcolor="#d1d1d1"
     inkscape:zoom="1.1835752"
     inkscape:cx="274.16931"
     inkscape:cy="217.56116"
     inkscape:window-width="2560"
     inkscape:window-height="1351"
     inkscape:window-x="1911"
     inkscape:window-y="-9"
     inkscape:window-maximized="1"
     inkscape:current-layer="svg2" />
  <g
     id="g3"
     transform="translate(-30.000001,30)">
    <path
       d="M 440,368 H 216 A 72,72 0 0 1 144,296 V 72 A 72,72 0 0 1 216,0 h 224 a 72,72 0 0 1 72,72 v 224 a 72,72 0 0 1 -72,72 z M 407.55,168 H 344 v -63.55 c 0,-8.61 -6.62,-16 -15.23,-16.43 A 16,16 0 0 0 312,104 v 64 h -63.55 c -8.61,0 -16,6.62 -16.43,15.23 A 16,16 0 0 0 248,200 h 64 v 63.55 c 0,8.61 6.62,16 15.23,16.43 A 16,16 0 0 0 344,264 v -64 h 64 a 16,16 0 0 0 16,-16.77 C 423.58,174.62 416.16,168 407.55,168 Z"
       id="path1" />
    <path
       d="M 433.33334,446 H 91.333336 C 77.342124,446 66.000002,434.65788 66.000002,420.66667 V 78.666661 c 0,-6.99561 5.671057,-12.666659 12.666667,-12.666659 6.99561,0 12.666667,5.671049 12.666667,12.666659 V 420.66667 H 433.33334 c 6.99561,0 12.66666,5.67106 12.66666,12.66667 C 446,440.32895 440.32895,446 433.33334,446 Z"
       id="path1-9"
       style="fill:#000000;fill-opacity:1;stroke:#000000;stroke-width:12;stroke-dasharray:none;stroke-opacity:1"
       sodipodi:nodetypes="sssssscsss" />
  </g>
</svg>
