<?xml version="1.0" encoding="UTF-8" standalone="no"?>
<svg
   width="512"
   height="512"
   viewBox="0 0 512 512"
   version="1.1"
   id="svg4"
   sodipodi:docname="artists.svg"
   inkscape:version="1.3 (0e150ed6c4, 2023-07-21)"
   xmlns:inkscape="http://www.inkscape.org/namespaces/inkscape"
   xmlns:sodipodi="http://sodipodi.sourceforge.net/DTD/sodipodi-0.dtd"
   xmlns="http://www.w3.org/2000/svg"
   xmlns:svg="http://www.w3.org/2000/svg">
  <defs
     id="defs4" />
  <sodipodi:namedview
     id="namedview4"
     pagecolor="#ffffff"
     bordercolor="#000000"
     borderopacity="0.25"
     inkscape:showpageshadow="2"
     inkscape:pageopacity="0.0"
     inkscape:pagecheckerboard="0"
     inkscape:deskcolor="#d1d1d1"
     inkscape:zoom="1.5371094"
     inkscape:cx="255.67471"
     inkscape:cy="256"
     inkscape:window-width="1920"
     inkscape:window-height="1001"
     inkscape:window-x="-9"
     inkscape:window-y="-9"
     inkscape:window-maximized="1"
     inkscape:current-layer="svg4" />
  <path
     d="m 176.00479,256 c 20.56,0 40.44,-9.18 56,-25.84 15.13,-16.25 24.37,-37.92 26,-61 1.74,-24.62 -5.77,-47.26 -21.14,-63.76 -15.37,-16.5 -36.86,-25.4 -60.86,-25.4 -23.83,0 -45.38,9.06 -60.7,25.52 -15.47,16.62 -23,39.22 -21.26,63.63 v 0 c 1.67,23.11 10.9,44.77 26,61 15.52,16.67 35.39,25.85 55.96,25.85 z m -66,-88 z"
     id="path1" />
  <path
     d="m 44.17479,432 h 263.65 a 27.71,27.71 0 0 0 22,-10.67 30.22,30.22 0 0 0 5.26,-25.79 c -8.42,-33.81 -29.28,-61.85 -60.32,-81.08 -27.55,-17.06 -62.62,-26.46 -98.76,-26.46 -36.85,0 -71,9 -98.71,26.05 -31.11,19.13 -52,47.33 -60.38,81.55 a 30.27,30.27 0 0 0 5.32,25.78 27.68,27.68 0 0 0 21.94,10.62 z"
     id="path2" />
  <path
     d="m 365.00479,260 c 35.19,0 66.13,-32.72 69,-72.93 1.42,-20.6 -5,-39.65 -18,-53.62 -12.86,-13.83 -31,-21.45 -51,-21.45 -20,0 -38,7.66 -50.93,21.57 -13.1,14.08 -19.5,33.09 -18,53.52 2.87,40.2 33.8,72.91 68.93,72.91 z"
     id="path3" />
  <path
     d="m 299.34479,291.45 c 17.59,-8.6 40.42,-12.9 65.65,-12.9 29.46,0 58.07,7.68 80.57,21.62 25.51,15.83 42.67,38.88 49.6,66.71 a 27.39,27.39 0 0 1 -4.79,23.36 25.32,25.32 0 0 1 -20.09,9.76 h -111 a 8,8 0 0 1 -7.87,-6.57 c -0.11,-0.63 -0.25,-1.26 -0.41,-1.88 -8.48,-34.06 -28.35,-62.84 -57.71,-83.82 a 8,8 0 0 1 0.63,-13.39 c 1.57,-0.92 3.37,-1.89 5.42,-2.89 z"
     id="path4" />
</svg>
