<?xml version="1.0" encoding="UTF-8" standalone="no"?>
<svg
   width="512"
   height="512"
   viewBox="0 0 512 512"
   version="1.1"
   id="svg14"
   sodipodi:docname="enqueue.svg"
   inkscape:version="1.3 (0e150ed6c4, 2023-07-21)"
   xsi:schemaLocation="http://purl.org/dc/elements/1.1/ http://purl.org/dc/elements/1.1/ "
   xmlns:inkscape="http://www.inkscape.org/namespaces/inkscape"
   xmlns:sodipodi="http://sodipodi.sourceforge.net/DTD/sodipodi-0.dtd"
   xmlns="http://www.w3.org/2000/svg"
   xmlns:svg="http://www.w3.org/2000/svg"
   xmlns:rdf="http://www.w3.org/1999/02/22-rdf-syntax-ns#"
   xmlns:cc="http://creativecommons.org/ns#"
   xmlns:dc="http://purl.org/dc/elements/1.1/"
   xmlns:xsi="http://www.w3.org/2001/XMLSchema-instance">
  <metadata
     id="metadata20">
    <rdf:RDF>
      <cc:Work
         rdf:about="">
        <dc:format>image/svg+xml</dc:format>
        <dc:type
           rdf:resource="http://purl.org/dc/dcmitype/StillImage" />
        <dc:title />
      </cc:Work>
    </rdf:RDF>
  </metadata>
  <defs
     id="defs18" />
  <sodipodi:namedview
     pagecolor="#ffffff"
     bordercolor="#666666"
     borderopacity="1"
     objecttolerance="10"
     gridtolerance="10"
     guidetolerance="10"
     inkscape:pageopacity="0"
     inkscape:pageshadow="2"
     inkscape:window-width="2560"
     inkscape:window-height="1351"
     id="namedview16"
     showgrid="false"
     inkscape:zoom="0.23046875"
     inkscape:cx="128"
     inkscape:cy="1188.8814"
     inkscape:window-x="2551"
     inkscape:window-y="-9"
     inkscape:window-maximized="1"
     inkscape:current-layer="svg14"
     inkscape:showpageshadow="2"
     inkscape:pagecheckerboard="0"
     inkscape:deskcolor="#d1d1d1" />
  <g
     id="g2"
     transform="translate(-0.598106,7.8756544)">
    <path
       style="color:#000000;fill:#000000;stroke-linecap:round;stroke-linejoin:round;-inkscape-stroke:none"
       d="m 63.759766,344 c -13.254834,0 -24,10.74517 -24,24 0,13.25483 10.745166,24 24,24 H 448.24 c 13.25483,0 24,-10.74517 24,-24 0,-13.25483 -10.74517,-24 -24,-24 z"
       id="line6"
       sodipodi:nodetypes="sssssss" />
    <g
       id="g910"
       transform="translate(-4.512604)">
      <g
         id="g1">
        <path
           style="color:#000000;fill:#000000;stroke-linecap:round;stroke-linejoin:round;-inkscape-stroke:none"
           d="m 272,232 c -13.25483,0 -24,10.74517 -24,24 0,13.25483 10.74517,24 24,24 h 176.24 c 13.25483,0 24,-10.74517 24,-24 0,-13.25483 -10.74517,-24 -24,-24 z"
           id="line4"
           sodipodi:nodetypes="sssssss"
           transform="translate(5.709046)" />
        <path
           style="color:#000000;fill:#000000;stroke-linecap:round;stroke-linejoin:round;-inkscape-stroke:none"
           d="m 277.70905,120 c -13.25483,0 -24,10.74517 -24,24 0,13.25483 10.74517,24 24,24 h 176.24 c 13.25483,0 24,-10.74517 24,-24 0,-13.25483 -10.74517,-24 -24,-24 z"
           id="line2"
           sodipodi:nodetypes="sssssss" />
      </g>
      <path
         style="stroke-width:0.520384"
         inkscape:connector-curvature="0"
         d="M 63.505797,295.75131 A 18.406017,18.406017 0 0 1 54.399062,293.3211 C 48.154442,289.78248 44.27237,282.9134 44.27237,275.45628 V 124.54465 c 0,-7.47795 3.882072,-14.3262 10.126692,-17.86482 a 18.281124,18.281124 0 0 1 18.614172,0.23413 L 201.99066,184.1183 a 18.73386,18.73386 0 0 1 0,31.74348 L 72.992417,293.08692 a 18.473667,18.473667 0 0 1 -9.48662,2.66436 z"
         id="path897" />
    </g>
  </g>
</svg>
