<?xml version="1.0" encoding="UTF-8" standalone="no"?>
<svg
   width="512"
   height="512"
   viewBox="0 0 512 512"
   version="1.1"
   id="svg5"
   sodipodi:docname="playlist.svg"
   xml:space="preserve"
   inkscape:version="1.3 (0e150ed6c4, 2023-07-21)"
   xmlns:inkscape="http://www.inkscape.org/namespaces/inkscape"
   xmlns:sodipodi="http://sodipodi.sourceforge.net/DTD/sodipodi-0.dtd"
   xmlns="http://www.w3.org/2000/svg"
   xmlns:svg="http://www.w3.org/2000/svg"><defs
     id="defs5" /><sodipodi:namedview
     id="namedview5"
     pagecolor="#ffffff"
     bordercolor="#000000"
     borderopacity="0.25"
     inkscape:showpageshadow="2"
     inkscape:pageopacity="0.0"
     inkscape:pagecheckerboard="0"
     inkscape:deskcolor="#d1d1d1"
     inkscape:zoom="0.4674915"
     inkscape:cx="-37.433836"
     inkscape:cy="556.15984"
     inkscape:window-width="2560"
     inkscape:window-height="1351"
     inkscape:window-x="2551"
     inkscape:window-y="-9"
     inkscape:window-maximized="1"
     inkscape:current-layer="g8" /><g
     id="g8"
     transform="translate(0.9800655,-28.070895)"><g
       id="g5"
       style="opacity:1"
       transform="translate(-42.351551)"><path
         style="color:#000000;fill:#000000;stroke-linecap:round;stroke-linejoin:round;-inkscape-stroke:none"
         d="m 72,120 a 24,24 0 0 0 -24,24 24,24 0 0 0 24,24 h 288 a 24,24 0 0 0 24,-24 24,24 0 0 0 -24,-24 z"
         id="line1" /><path
         style="color:#000000;fill:#000000;stroke-linecap:round;stroke-linejoin:round;-inkscape-stroke:none"
         d="m 72,232 a 24,24 0 0 0 -24,24 24,24 0 0 0 24,24 h 288 a 24,24 0 0 0 24,-24 24,24 0 0 0 -24,-24 z"
         id="line2" /><path
         style="color:#000000;fill:#000000;stroke-linecap:round;stroke-linejoin:round;-inkscape-stroke:none"
         d="m 72,344 c -13.254834,0 -24,10.74517 -24,24 0,13.25483 10.745166,24 24,24 h 198 c 13.25483,0 24,-10.74517 24,-24 0,-13.25483 -10.74517,-24 -24,-24 z"
         id="line3"
         sodipodi:nodetypes="sssssss" /></g><path
       d="m 339.35977,448.14179 a 45.496876,45.496876 0 0 1 -26.67177,-8.6946 46.683751,46.683751 0 0 1 -19.3445,-37.8085 41.425234,41.425234 0 0 1 28.13899,-39.3385 l 41.91952,-14.1096 a 13.393555,13.393555 0 0 0 9.06644,-12.7672 V 128.3458 a 26.457423,26.457423 0 0 1 19.85546,-25.6737 L 481.661,79.476812 a 18.132813,18.132813 0 0 1 22.68246,17.54718 v 47.598968 a 26.449181,26.449181 0 0 1 -19.94602,25.70854 l -75.53969,19.06369 a 13.385313,13.385313 0 0 0 -10.01414,13.0566 v 199.5352 a 39.743828,39.743828 0 0 1 -27.01794,37.7576 l -17.69589,5.959 a 46.156253,46.156253 0 0 1 -14.77001,2.4382 z"
       id="path1"
       style="stroke-width:0.824216" /></g></svg>
