<?xml version="1.0" encoding="UTF-8" standalone="no"?>
<svg
   class="ionicon"
   viewBox="0 0 512 512"
   version="1.1"
   id="svg1"
   sodipodi:docname="position.svg"
   inkscape:version="1.3 (0e150ed6c4, 2023-07-21)"
   xmlns:inkscape="http://www.inkscape.org/namespaces/inkscape"
   xmlns:sodipodi="http://sodipodi.sourceforge.net/DTD/sodipodi-0.dtd"
   xmlns="http://www.w3.org/2000/svg"
   xmlns:svg="http://www.w3.org/2000/svg">
  <defs
     id="defs1" />
  <sodipodi:namedview
     id="namedview1"
     pagecolor="#ffffff"
     bordercolor="#000000"
     borderopacity="0.25"
     inkscape:showpageshadow="2"
     inkscape:pageopacity="0.0"
     inkscape:pagecheckerboard="0"
     inkscape:deskcolor="#d1d1d1"
     inkscape:zoom="1.4785156"
     inkscape:cx="256"
     inkscape:cy="256"
     inkscape:window-width="2560"
     inkscape:window-height="1351"
     inkscape:window-x="1911"
     inkscape:window-y="-9"
     inkscape:window-maximized="1"
     inkscape:current-layer="svg1" />
  <g
     id="text1"
     aria-label="123">
    <path
       d="m 133.54054,438.49852 q -8.79511,0 -16.36868,-5.13048 -7.32926,-5.37479 -7.32926,-15.14713 V 132.13555 l -71.093796,39.08937 q -4.641864,2.44309 -9.528035,2.44309 -8.550801,0 -14.414207,-5.6191 -5.8634064,-5.8634 -5.8634064,-14.65851 0,-11.72682 10.2609604,-17.59022 L 127.18851,76.188881 q 4.64187,-2.687394 9.77235,-2.687394 5.61909,0 10.26096,3.176012 10.26096,6.352023 10.26096,17.34591 V 418.22091 q 0,9.77234 -7.57357,15.14713 -7.32926,5.13048 -16.36867,5.13048 z"
       id="path4" />
    <path
       style="font-weight:bold;font-size:360px;-inkscape-font-specification:'Robaga Rounded Bold';letter-spacing:-30px"
       d="M 311.22092,434.83389 H 195.2053 q -9.31641,0 -15.9961,-6.5039 -6.67968,-6.67969 -6.67968,-16.17188 0,-28.82812 19.86328,-52.55859 13.71093,-16.17188 42.53906,-37.44141 13.88672,-10.37109 26.01562,-20.91797 12.12891,-10.72265 19.86329,-23.02734 7.73437,-12.48047 7.73437,-28.125 0,-14.58984 -7.91016,-22.14844 -7.91015,-7.55859 -22.32421,-7.55859 -10.54688,0 -21.6211,3.33984 -10.89844,3.16406 -19.16015,10.01953 -6.67969,5.27344 -14.76563,5.27344 -10.01953,0 -17.05078,-8.08594 -5.44922,-6.5039 -5.44922,-14.41406 0,-10.19531 8.08594,-17.22656 14.41406,-12.12891 33.04687,-18.28125 18.63282,-6.15235 36.91407,-6.15235 22.85156,0 40.95703,8.96485 18.10547,8.96484 28.65234,25.83984 10.54688,16.69922 10.54688,40.42969 0,36.91406 -23.55469,64.6875 -11.42578,13.35937 -25.13672,24.08203 -11.07422,8.4375 -22.5,16.34766 -10.72266,7.55859 -21.26953,15.64453 -10.54688,7.91015 -19.16016,18.63281 h 84.375 q 9.31641,0 15.9961,6.67969 6.67968,6.67969 6.67968,15.99609 0,9.49219 -6.67968,16.17188 -6.67969,6.5039 -15.9961,6.5039 z m 108.86717,2.63672 q -43.0664,0 -71.36718,-29.53125 -6.50391,-6.67969 -6.50391,-15.46875 0,-9.3164 6.50391,-15.99609 6.67968,-6.85547 16.17187,-6.85547 9.31641,0 16.34766,7.20703 14.9414,15.11719 38.84765,15.11719 8.08594,0 15.64454,-3.69141 7.73437,-3.6914 12.48046,-10.19531 4.92188,-6.67969 4.92188,-15.46875 0,-14.23828 -17.75391,-26.71875 -14.41406,-10.19531 -30.76172,-15.11719 -7.38281,-2.10937 -11.95312,-7.91015 -4.39453,-5.97657 -4.39453,-13.53516 0,-7.20703 4.04297,-13.18359 4.21875,-5.97657 11.25,-8.4375 8.08593,-2.8125 16.875,-8.08594 8.78906,-5.27344 15.11718,-12.65625 6.50391,-7.5586 6.50391,-17.05078 0,-9.31641 -6.50391,-14.41407 -6.5039,-5.09765 -15.46875,-5.09765 -8.4375,0 -17.57812,3.16406 -8.96484,2.98828 -15.29297,9.14063 -6.85547,6.5039 -15.82031,6.5039 -9.31641,0 -16.17188,-6.5039 -6.67968,-6.67969 -6.67968,-15.9961 0,-9.3164 7.03125,-16.17187 12.30468,-12.30469 29.88281,-18.98438 17.7539,-6.67969 34.6289,-6.67969 19.16016,0 35.50782,7.91016 16.34765,7.91016 26.36718,22.5 10.01954,14.58984 10.01954,34.62891 0,33.04687 -30.9375,57.30468 11.60156,7.38282 21.09375,17.22657 9.49218,9.66797 15.11718,21.79687 5.80078,12.12891 5.80078,26.36719 0,22.67578 -11.95312,39.55078 -11.77734,16.69922 -30.76172,26.01563 -18.98437,9.3164 -40.25391,9.3164 z"
       id="path5" />
  </g>
</svg>
