<?xml version="1.0" encoding="UTF-8" standalone="no"?>
<svg
   class="ionicon"
   viewBox="0 0 512 512"
   version="1.1"
   id="svg1"
   sodipodi:docname="position.svg"
   inkscape:version="1.3 (0e150ed6c4, 2023-07-21)"
   xmlns:inkscape="http://www.inkscape.org/namespaces/inkscape"
   xmlns:sodipodi="http://sodipodi.sourceforge.net/DTD/sodipodi-0.dtd"
   xmlns="http://www.w3.org/2000/svg"
   xmlns:svg="http://www.w3.org/2000/svg">
  <defs
     id="defs1" />
  <sodipodi:namedview
     id="namedview1"
     pagecolor="#ffffff"
     bordercolor="#000000"
     borderopacity="0.25"
     inkscape:showpageshadow="2"
     inkscape:pageopacity="0.0"
     inkscape:pagecheckerboard="0"
     inkscape:deskcolor="#d1d1d1"
     inkscape:zoom="1.4433594"
     inkscape:cx="287.17727"
     inkscape:cy="161.08254"
     inkscape:window-width="2560"
     inkscape:window-height="1351"
     inkscape:window-x="1911"
     inkscape:window-y="-9"
     inkscape:window-maximized="1"
     inkscape:current-layer="svg1" />
  <path
     d="m 292.6,407.78 -120,-320 a 22,22 0 0 0 -41.2,0 l -120,320 a 22,22 0 0 0 41.2,15.44 L 88.76,326.8 a 2,2 0 0 1 1.87,-1.3 h 122.74 a 2,2 0 0 1 1.87,1.3 l 36.16,96.42 a 22,22 0 0 0 41.2,-15.44 z m -185.84,-129 43.37,-115.65 a 2,2 0 0 1 3.74,0 l 43.37,115.67 a 2,2 0 0 1 -1.87,2.7 h -86.74 a 2,2 0 0 1 -1.87,-2.7 z M 400.77,169.5 c -41.72,-0.3 -79.08,23.87 -95,61.4 a 22.000511,22.000511 0 0 0 40.5,17.2 c 8.88,-20.89 29.77,-34.44 53.32,-34.6 32.32,-0.22 58.41,26.5 58.41,58.85 a 1.5,1.5 0 0 1 -1.45,1.5 c -21.92,0.61 -47.92,2.07 -71.12,4.8 -54.75,6.44 -87.43,36.29 -87.43,79.85 0,23.19 8.76,44 24.67,58.68 14.93,13.75 35.33,21.32 57.33,21.32 31,0 57.69,-8 77.94,-23.22 H 458 a 22.000205,22.000205 0 1 0 44,0.19 v -143 C 502,216.29 457,169.91 400.77,169.5 Z M 380,394.5 c -17.53,0 -38,-9.43 -38,-36 0,-10.67 3.83,-18.14 12.43,-24.23 8.37,-5.93 21.2,-10.16 36.14,-11.92 21.12,-2.49 44.82,-3.86 65.14,-4.47 a 2,2 0 0 1 2,2.1 C 455,370.1 429.46,394.5 380,394.5 Z"
     id="path1"
     style="display:none" />
  <text
     xml:space="preserve"
     style="font-size:500.344px;font-family:'Robaga Rounded';-inkscape-font-specification:'Robaga Rounded';text-align:center;letter-spacing:-50px;word-spacing:0px;text-anchor:middle;opacity:1;fill:#000000;stroke-width:0.599118;stroke-linecap:round;stroke-linejoin:round;stroke-miterlimit:10"
     x="260.90396"
     y="434.83389"
     id="text1"><tspan
       sodipodi:role="line"
       id="tspan1"
       x="240.90395"
       y="434.83389"
       style="letter-spacing:-50px;stroke-width:0.599118">1<tspan
   style="font-style:normal;font-variant:normal;font-weight:bold;font-stretch:normal;font-size:360px;font-family:'Robaga Rounded';-inkscape-font-specification:'Robaga Rounded Bold';letter-spacing:-40px"
   id="tspan2">23</tspan></tspan></text>
</svg>
