<svg xmlns="http://www.w3.org/2000/svg" class="ionicon" viewBox="0 0 512 512"><path d="M 136.96094 73.501953 C 133.54062 73.501953 130.28403 74.397859 127.18945 76.189453 L 19.205078 135.80078 C 12.364445 139.70971 8.9433594 145.57275 8.9433594 153.39062 C 8.9433594 159.25403 10.897707 164.1399 14.806641 168.04883 C 18.715574 171.79489 23.520175 173.66797 29.220703 173.66797 C 32.478147 173.66797 35.653474 172.85333 38.748047 171.22461 L 109.8418 132.13477 L 109.8418 418.2207 C 109.8418 424.73559 112.28571 429.784 117.17188 433.36719 C 122.22092 436.7875 127.67761 438.49805 133.54102 438.49805 C 139.56728 438.49805 145.02399 436.7875 149.91016 433.36719 C 154.9592 429.784 157.48242 424.73559 157.48242 418.2207 L 157.48242 94.023438 C 157.48242 86.694187 154.06329 80.912412 147.22266 76.677734 C 144.12808 74.560395 140.70699 73.501953 136.96094 73.501953 z M 258.31055 174.85352 C 246.12306 174.85352 233.81835 176.9043 221.39648 181.00586 C 208.97462 185.10742 197.95897 191.20118 188.34961 199.28711 C 182.95899 203.9746 180.26367 209.71681 180.26367 216.51367 C 180.26367 221.78711 182.08008 226.59181 185.71289 230.92773 C 190.40039 236.31836 196.08399 239.01367 202.76367 239.01367 C 208.15429 239.01367 213.07617 237.25586 217.5293 233.74023 C 223.0371 229.16993 229.42383 225.83007 236.68945 223.7207 C 244.07226 221.49415 251.2793 220.38086 258.31055 220.38086 C 267.91991 220.38086 275.36134 222.9004 280.63477 227.93945 C 285.9082 232.97851 288.54492 240.36134 288.54492 250.08789 C 288.54492 260.51757 285.96679 269.89259 280.81055 278.21289 C 275.6543 286.41601 269.0332 294.09181 260.94727 301.24023 C 252.86134 308.27148 244.18944 315.24415 234.93164 322.1582 C 215.71291 336.33788 201.53319 348.81837 192.39258 359.59961 C 179.1504 375.41991 172.5293 392.93948 172.5293 412.1582 C 172.5293 418.48632 174.75587 423.87696 179.20898 428.33008 C 183.66211 432.66601 188.99414 434.83398 195.20508 434.83398 L 311.2207 434.83398 C 317.43164 434.83398 322.76367 432.66601 327.2168 428.33008 C 331.66991 423.87696 333.89648 418.48632 333.89648 412.1582 C 333.89648 405.94728 331.66991 400.61523 327.2168 396.16211 C 322.76367 391.70899 317.43164 389.48242 311.2207 389.48242 L 226.8457 389.48242 C 232.58788 382.33399 238.97461 376.12304 246.00586 370.84961 C 253.0371 365.45899 260.12696 360.24413 267.27539 355.20508 C 274.89257 349.93164 282.39258 344.48242 289.77539 338.85742 C 298.91601 331.70899 307.29493 323.68163 314.91211 314.77539 C 330.61522 296.25978 338.4668 274.69724 338.4668 250.08789 C 338.4668 234.26759 334.95117 220.79101 327.91992 209.6582 C 320.88868 198.40821 311.33788 189.79491 299.26758 183.81836 C 287.19728 177.8418 273.5449 174.85352 258.31055 174.85352 z M 420.08789 174.85352 C 408.8379 174.85352 397.29491 177.08008 385.45898 181.5332 C 373.74024 185.98633 363.77928 192.31446 355.57617 200.51758 C 350.88868 205.08789 348.54492 210.47853 348.54492 216.68945 C 348.54492 222.90039 350.77149 228.23242 355.22461 232.68555 C 359.79492 237.02148 365.18555 239.18945 371.39648 239.18945 C 377.37304 239.18945 382.64649 237.02148 387.2168 232.68555 C 391.43555 228.58398 396.53321 225.53711 402.50977 223.54492 C 408.60351 221.43555 414.4629 220.38086 420.08789 220.38086 C 426.06445 220.38086 431.22071 222.08009 435.55664 225.47852 C 439.89258 228.87695 442.06055 233.68164 442.06055 239.89258 C 442.06055 246.22069 439.89258 251.9043 435.55664 256.94336 C 431.3379 261.86523 426.29882 266.08399 420.43945 269.59961 C 414.58008 273.11523 408.95507 275.81055 403.56445 277.68555 C 398.87696 279.32617 395.12695 282.13867 392.31445 286.12305 C 389.61914 290.10742 388.27148 294.50196 388.27148 299.30664 C 388.27148 304.3457 389.73633 308.85742 392.66602 312.8418 C 395.71289 316.70898 399.69727 319.34571 404.61914 320.75195 C 415.51757 324.0332 425.7715 329.07227 435.38086 335.86914 C 447.21679 344.18945 453.13477 353.09571 453.13477 362.58789 C 453.13477 368.44726 451.49414 373.60352 448.21289 378.05664 C 445.04883 382.39258 440.88866 385.79102 435.73242 388.25195 C 430.69336 390.71289 425.47851 391.94336 420.08789 391.94336 C 404.15041 391.94336 391.20116 386.90429 381.24023 376.82617 C 376.55274 372.02149 371.10351 369.61914 364.89258 369.61914 C 358.56446 369.61914 353.17382 371.9043 348.7207 376.47461 C 344.38477 380.92773 342.2168 386.25978 342.2168 392.4707 C 342.2168 398.33007 344.38477 403.48633 348.7207 407.93945 C 367.58787 427.62693 391.37699 437.4707 420.08789 437.4707 C 434.26757 437.4707 447.68556 434.36522 460.3418 428.1543 C 472.99804 421.94336 483.25196 413.27147 491.10352 402.13867 C 499.07225 390.88868 503.05664 377.70506 503.05664 362.58789 C 503.05664 353.09571 501.12304 344.30664 497.25586 336.2207 C 493.50586 328.13478 488.46679 320.86914 482.13867 314.42383 C 475.81055 307.86133 468.77929 302.11914 461.04492 297.19727 C 481.6699 281.02541 491.98242 261.9238 491.98242 239.89258 C 491.98242 226.53321 488.64258 214.99022 481.96289 205.26367 C 475.28321 195.53712 466.49413 188.03711 455.5957 182.76367 C 444.69727 177.49024 432.86132 174.85352 420.08789 174.85352 z "/></svg>