<?xml version="1.0" encoding="UTF-8" standalone="no"?>
<svg
   width="512"
   height="512"
   viewBox="0 0 512 512"
   version="1.1"
   id="svg1"
   sodipodi:docname="recently-played.svg"
   xml:space="preserve"
   inkscape:version="1.3 (0e150ed6c4, 2023-07-21)"
   xmlns:inkscape="http://www.inkscape.org/namespaces/inkscape"
   xmlns:sodipodi="http://sodipodi.sourceforge.net/DTD/sodipodi-0.dtd"
   xmlns="http://www.w3.org/2000/svg"
   xmlns:svg="http://www.w3.org/2000/svg"><defs
     id="defs1" /><sodipodi:namedview
     id="namedview1"
     pagecolor="#ffffff"
     bordercolor="#000000"
     borderopacity="0.25"
     inkscape:showpageshadow="2"
     inkscape:pageopacity="0.0"
     inkscape:pagecheckerboard="0"
     inkscape:deskcolor="#d1d1d1"
     inkscape:zoom="0.33056641"
     inkscape:cx="-170.91876"
     inkscape:cy="490.06795"
     inkscape:window-width="2560"
     inkscape:window-height="1351"
     inkscape:window-x="2551"
     inkscape:window-y="-9"
     inkscape:window-maximized="1"
     inkscape:current-layer="svg1" /><g
     id="g1"
     transform="matrix(-1.1,0,0,1.1,537.60708,-25.592917)"><path
       d="m 320,146 c 0,0 24.36,-12 -64,-12 a 160,160 0 1 0 160,160"
       style="fill:none;stroke:#000000;stroke-width:32px;stroke-linecap:round;stroke-miterlimit:10"
       id="path1" /><polyline
       points="256 58 336 138 256 218"
       style="fill:none;stroke:#000000;stroke-width:32px;stroke-linecap:round;stroke-linejoin:round"
       id="polyline1" /></g><path
     d="m 209.86836,366.80033 c -2.30241,-0.005 -4.56407,-0.60782 -6.5625,-1.75125 -4.5,-2.55 -7.2975,-7.5 -7.2975,-12.87375 v -108.75 c 0,-5.38875 2.7975,-10.32375 7.2975,-12.87375 4.16724,-2.39495 9.30808,-2.33028 13.41374,0.16875 l 92.94376,55.635 c 4.21885,2.64537 6.32828,7.04143 6.32828,11.4375 0,4.39606 -2.10943,8.79213 -6.32828,11.4375 l -92.95875,55.65 c -2.06289,1.24714 -4.42569,1.91074 -6.83625,1.92 z"
     id="path1-6"
     sodipodi:nodetypes="ccsscccsccc"
     style="stroke-width:0.375" /></svg>
