<?xml version="1.0" encoding="UTF-8" standalone="no"?>
<svg
   width="512"
   height="512"
   viewBox="0 0 512 512"
   version="1.1"
   id="svg4"
   sodipodi:docname="smart_shuffle.svg"
   inkscape:version="1.3 (0e150ed6c4, 2023-07-21)"
   xmlns:inkscape="http://www.inkscape.org/namespaces/inkscape"
   xmlns:sodipodi="http://sodipodi.sourceforge.net/DTD/sodipodi-0.dtd"
   xmlns="http://www.w3.org/2000/svg"
   xmlns:svg="http://www.w3.org/2000/svg">
  <defs
     id="defs4" />
  <sodipodi:namedview
     id="namedview4"
     pagecolor="#ffffff"
     bordercolor="#000000"
     borderopacity="0.25"
     inkscape:showpageshadow="2"
     inkscape:pageopacity="0.0"
     inkscape:pagecheckerboard="0"
     inkscape:deskcolor="#d1d1d1"
     inkscape:zoom="1.6738281"
     inkscape:cx="256"
     inkscape:cy="256"
     inkscape:window-width="1939"
     inkscape:window-height="1221"
     inkscape:window-x="2315"
     inkscape:window-y="122"
     inkscape:window-maximized="0"
     inkscape:current-layer="svg4" />
  <g
     id="g5"
     transform="translate(3.3153273e-4)">
    <g
       id="g4"
       transform="matrix(1,0,0,-1,0,512)">
      <polyline
         points="400 304 448 352 400 400"
         style="fill:none;stroke:#000000;stroke-width:32px;stroke-linecap:round;stroke-linejoin:round"
         id="polyline1" />
      <polyline
         points="400 112 448 160 400 208"
         style="fill:none;stroke:#000000;stroke-width:32px;stroke-linecap:round;stroke-linejoin:round"
         id="polyline2" />
      <path
         d="m 64,160 h 85.19 a 80,80 0 0 1 66.56,35.62 l 80.5,120.76 A 80,80 0 0 0 362.81,352 H 416"
         style="fill:none;stroke:#000000;stroke-width:32px;stroke-linecap:round;stroke-linejoin:round"
         id="path3" />
      <path
         d="m 416,160 h -53.19 a 80,80 0 0 0 -66.56,35.62 L 288,208"
         style="fill:none;stroke:#000000;stroke-width:32px;stroke-linecap:round;stroke-linejoin:round"
         id="path4" />
    </g>
    <path
       d="m 131.99038,264.00447 a 12,12 0 0 0 11.1975,-7.695 l 17.13,-44.5275 a 6,6 0 0 1 3.45,-3.45 l 44.5275,-17.13 a 12,12 0 0 0 0,-22.395 l -44.5275,-17.13 a 6,6 0 0 1 -3.45,-3.45 l -17.0025,-44.2125 a 12.3375,12.3375 0 0 0 -9.8775,-7.927505 12,12 0 0 0 -12.645,7.612505 l -17.13,44.5275 a 6,6 0 0 1 -3.45,3.45 l -44.527506,17.13 a 12,12 0 0 0 0,22.395 l 44.527506,17.13 a 6,6 0 0 1 3.45,3.45 l 17.13,44.5275 a 12,12 0 0 0 11.1975,7.695 z"
       id="path3-8"
       style="stroke-width:0.75" />
  </g>
</svg>
