<?xml version="1.0" encoding="UTF-8" standalone="no"?>
<svg
   viewBox="0 0 512 512"
   version="1.1"
   id="svg2"
   sodipodi:docname="calendar-clear.svg"
   inkscape:version="1.3 (0e150ed6c4, 2023-07-21)"
   xmlns:inkscape="http://www.inkscape.org/namespaces/inkscape"
   xmlns:sodipodi="http://sodipodi.sourceforge.net/DTD/sodipodi-0.dtd"
   xmlns="http://www.w3.org/2000/svg"
   xmlns:svg="http://www.w3.org/2000/svg">
  <defs
     id="defs2" />
  <sodipodi:namedview
     id="namedview2"
     pagecolor="#ffffff"
     bordercolor="#000000"
     borderopacity="0.25"
     inkscape:showpageshadow="2"
     inkscape:pageopacity="0.0"
     inkscape:pagecheckerboard="0"
     inkscape:deskcolor="#d1d1d1"
     inkscape:zoom="1"
     inkscape:cx="65"
     inkscape:cy="465"
     inkscape:window-width="2560"
     inkscape:window-height="1351"
     inkscape:window-x="2551"
     inkscape:window-y="-9"
     inkscape:window-maximized="1"
     inkscape:current-layer="svg2" />
  <path
     id="path2"
     d="M 128.76953 32.019531 A 16 16 0 0 0 112 48 L 112 64 L 96 64 A 64 64 0 0 0 32 128 L 32 140 A 4 4 0 0 0 36 144 L 476 144 A 4 4 0 0 0 480 140 L 480 128 A 64 64 0 0 0 416 64 L 400 64 L 400 48.449219 C 400 39.839227 393.37952 32.449531 384.76953 32.019531 A 16 16 0 0 0 368 48 L 368 64 L 144 64 L 144 48.449219 C 144 39.839227 137.37952 32.449531 128.76953 32.019531 z M 36 176 A 4 4 0 0 0 32 180 L 32 416 A 64 64 0 0 0 96 480 L 416 480 A 64 64 0 0 0 480 416 L 480 180 A 4 4 0 0 0 476 176 L 36 176 z M 376.34961 218.14453 A 12.222273 12.222273 0 0 1 380.59375 218.23242 A 12.222273 12.222273 0 0 1 386.26953 221.02344 A 12.222273 12.222273 0 0 1 387.41992 238.26953 L 216.30859 433.82617 A 12.223495 12.223495 0 0 1 198.46875 434.42188 L 125.13477 361.08789 A 12.222273 12.222273 0 0 1 125.13477 343.80273 A 12.222273 12.222273 0 0 1 142.41992 343.80273 L 206.51758 407.89844 L 369.02539 222.17383 A 12.222273 12.222273 0 0 1 376.34961 218.14453 z " />
</svg>
