<?xml version="1.0" encoding="UTF-8" standalone="no"?>
<svg
   viewBox="0 0 512 512"
   version="1.1"
   id="svg2"
   sodipodi:docname="calendar-6M.svg"
   inkscape:version="1.3 (0e150ed6c4, 2023-07-21)"
   xmlns:inkscape="http://www.inkscape.org/namespaces/inkscape"
   xmlns:sodipodi="http://sodipodi.sourceforge.net/DTD/sodipodi-0.dtd"
   xmlns="http://www.w3.org/2000/svg"
   xmlns:svg="http://www.w3.org/2000/svg">
  <defs
     id="defs2" />
  <sodipodi:namedview
     id="namedview2"
     pagecolor="#ffffff"
     bordercolor="#000000"
     borderopacity="0.25"
     inkscape:showpageshadow="2"
     inkscape:pageopacity="0.0"
     inkscape:pagecheckerboard="0"
     inkscape:deskcolor="#d1d1d1"
     inkscape:zoom="0.66113281"
     inkscape:cx="-74.115214"
     inkscape:cy="198.14476"
     inkscape:window-width="2560"
     inkscape:window-height="1351"
     inkscape:window-x="2551"
     inkscape:window-y="-9"
     inkscape:window-maximized="1"
     inkscape:current-layer="svg2" />
  <path
     id="path2"
     d="M 128.76953 32.019531 A 16 16 0 0 0 112 48 L 112 64 L 96 64 A 64 64 0 0 0 32 128 L 32 140 A 4 4 0 0 0 36 144 L 476 144 A 4 4 0 0 0 480 140 L 480 128 A 64 64 0 0 0 416 64 L 400 64 L 400 48.449219 C 400 39.839227 393.37952 32.449531 384.76953 32.019531 A 16 16 0 0 0 368 48 L 368 64 L 144 64 L 144 48.449219 C 144 39.839227 137.37952 32.449531 128.76953 32.019531 z M 36 176 A 4 4 0 0 0 32 180 L 32 416 A 64 64 0 0 0 96 480 L 416 480 A 64 64 0 0 0 480 416 L 480 180 A 4 4 0 0 0 476 176 L 36 176 z M 159.26172 230.87305 C 162.38228 230.87305 165.20106 231.91181 167.71484 233.99219 C 170.31531 235.98587 171.61523 238.6299 171.61523 241.92383 C 171.61523 244.87103 170.44393 247.42865 168.10352 249.5957 C 148.25329 268.83915 133.86381 289.73021 124.93555 312.26758 C 135.16404 307.06665 145.74015 304.46484 156.66211 304.46484 C 168.79762 304.46484 178.54998 307.23945 185.91797 312.78711 C 193.37263 318.24808 198.78931 325.5734 202.16992 334.76172 C 205.63721 343.86335 207.37109 353.87492 207.37109 364.79688 C 207.37109 376.58566 205.03044 387.03118 200.34961 396.13281 C 195.66877 405.23444 188.99439 412.34278 180.32617 417.45703 C 171.65795 422.57128 161.2566 425.12695 149.12109 425.12695 C 135.85871 425.12695 124.93701 422.13732 116.35547 416.15625 C 107.77393 410.0885 101.40293 402.02584 97.242188 391.9707 C 93.081442 381.82889 91 370.6038 91 358.29492 C 91 341.82531 93.599849 326.22231 98.800781 311.48633 C 104.00171 296.75036 111.11005 282.92541 120.125 270.00977 C 129.22663 257.09411 139.62994 245.0875 151.33203 233.99219 C 153.67246 231.91181 156.31453 230.87305 159.26172 230.87305 z M 256.7793 230.87305 C 260.50663 230.87305 263.54044 232.56275 265.88086 235.94336 L 331.80273 332.68164 L 400.97656 235.68359 C 403.2303 232.47635 406.1777 230.87305 409.81836 230.87305 C 412.93892 230.87305 415.58295 231.95599 417.75 234.12305 C 419.91706 236.2901 421 238.93412 421 242.05469 L 421 414.20508 C 421 417.75905 419.61367 420.48948 416.83984 422.39648 C 414.15269 424.21681 411.20528 425.12695 407.99805 425.12695 C 404.87748 425.12695 401.93008 424.21681 399.15625 422.39648 C 396.46911 420.48948 395.125 417.75905 395.125 414.20508 L 395.125 282.10156 L 338.69531 361.28516 C 336.52825 364.40571 333.49445 365.9668 329.59375 365.9668 C 325.77973 365.88012 322.78814 364.23263 320.62109 361.02539 L 267.96289 283.66211 L 267.96289 413.94531 C 267.96289 416.97919 266.878 419.62322 264.71094 421.87695 C 262.54389 424.044 259.89986 425.12695 256.7793 425.12695 C 253.74542 425.12695 251.10335 424.044 248.84961 421.87695 C 246.68256 419.62322 245.59766 416.97919 245.59766 413.94531 L 245.59766 242.05469 C 245.59766 238.93412 246.68256 236.2901 248.84961 234.12305 C 251.10335 231.95599 253.74542 230.87305 256.7793 230.87305 z M 156.66211 326.17969 C 148.86072 326.17969 141.18979 328.21695 133.64844 332.29102 C 126.19376 336.2784 120.94989 341.99845 117.91602 349.45312 C 116.78915 352.22695 116.22461 355.17436 116.22461 358.29492 C 116.22461 370.51711 118.56526 380.70343 123.24609 388.85156 C 128.88044 398.55997 137.54791 403.41406 149.25 403.41406 C 156.87803 403.41406 163.12041 401.68018 167.97461 398.21289 C 172.82882 394.65892 176.38298 389.97763 178.63672 384.16992 C 180.89045 378.27553 182.01758 371.81813 182.01758 364.79688 C 182.01758 354.39501 180.45649 345.85617 177.33594 339.18164 C 173.26187 330.51342 166.37052 326.17969 156.66211 326.17969 z " />
</svg>
