<?xml version="1.0" encoding="UTF-8" standalone="no"?>
<svg
   class="ionicon"
   viewBox="0 0 512 512"
   version="1.1"
   id="svg2"
   sodipodi:docname="pie-chart-listen.svg"
   inkscape:version="1.3 (0e150ed6c4, 2023-07-21)"
   xmlns:inkscape="http://www.inkscape.org/namespaces/inkscape"
   xmlns:sodipodi="http://sodipodi.sourceforge.net/DTD/sodipodi-0.dtd"
   xmlns="http://www.w3.org/2000/svg"
   xmlns:svg="http://www.w3.org/2000/svg">
  <defs
     id="defs2" />
  <sodipodi:namedview
     id="namedview2"
     pagecolor="#ffffff"
     bordercolor="#000000"
     borderopacity="0.25"
     inkscape:showpageshadow="2"
     inkscape:pageopacity="0.0"
     inkscape:pagecheckerboard="0"
     inkscape:deskcolor="#d1d1d1"
     inkscape:zoom="1.1835752"
     inkscape:cx="187.14485"
     inkscape:cy="199.81831"
     inkscape:window-width="1920"
     inkscape:window-height="1051"
     inkscape:window-x="-9"
     inkscape:window-y="-9"
     inkscape:window-maximized="1"
     inkscape:current-layer="svg2" />
  <path
     d="m 230.18162,50.169344 a 8,8 0 0 1 9.59,7.82 V 237.98934 a 48.07,48.07 0 0 0 28.4,43.82 l 172.47,77.18 a 8,8 0 0 1 3.35,11.81 208.42,208.42 0 0 1 -48.46,50.41 206.32,206.32 0 0 1 -123.76,40.78 c -114.69,0 -207.999999,-93.31 -207.999999,-208 0,-100.45 71.579999,-184.499996 166.409999,-203.819996 z"
     id="path2" />
  <path
     d="m 414.40254,119.46673 c -19.2285,-18.71999 -44.676,-29.456989 -69.822,-29.456989 -25.146,0 -50.5935,10.736999 -69.822,29.456989 -19.9755,19.4445 -30.978,44.793 -30.978,71.343 0,12.0015 3.9375,27.4905 14.796,56.4975 10.8585,29.007 32.454,41.1525 41.5755,43.137 2.6145,0.5715 5.679,1.1655 8.4285,1.1655 a 27.027,27.027 0 0 0 13.5,-3.6 l 6.3,-3.6 c 6.7815,-3.969 8.7615,-12.6585 4.86,-19.5075 l -39.114,-68.6565 a 14.2785,14.2785 0 0 0 -19.6065,-5.292 l -6.1605,3.6 a 25.4205,25.4205 0 0 0 -6.3,5.2155 1.8,1.8 0 0 1 -3.15,-0.9 51.606,51.606 0 0 1 -0.729,-8.0595 c 0,-22.6395 9.45,-44.316 26.622,-61.0245 16.578,-16.128 38.3535,-25.3755 59.778,-25.3755 21.4245,0 43.2,9.2475 59.778,25.3755 17.172,16.7085 26.622,38.385 26.622,61.0245 a 51.606,51.606 0 0 1 -0.756,8.0595 1.8,1.8 0 0 1 -3.15,0.9 25.4205,25.4205 0 0 0 -6.3,-5.2155 l -6.1605,-3.6 a 14.2785,14.2785 0 0 0 -19.6065,5.292 l -39.087,68.6565 c -3.9015,6.849 -1.9215,15.5385 4.86,19.5075 l 6.3,3.6 a 27.027,27.027 0 0 0 13.5,3.6 c 2.7495,0 5.814,-0.594 8.4285,-1.1655 9.1215,-1.9845 30.7215,-14.1345 41.5755,-43.137 10.854,-29.0025 14.796,-44.496 14.796,-56.4975 0,-26.55 -11.0025,-51.8985 -30.978,-71.343 z"
     id="path1"
     style="stroke-width:0.45" />
</svg>
