<?xml version="1.0" encoding="UTF-8" standalone="no"?>
<svg
   viewBox="0 0 512 512"
   version="1.1"
   id="svg2"
   sodipodi:docname="calendar-31.svg"
   inkscape:version="1.3 (0e150ed6c4, 2023-07-21)"
   xmlns:inkscape="http://www.inkscape.org/namespaces/inkscape"
   xmlns:sodipodi="http://sodipodi.sourceforge.net/DTD/sodipodi-0.dtd"
   xmlns="http://www.w3.org/2000/svg"
   xmlns:svg="http://www.w3.org/2000/svg">
  <defs
     id="defs2" />
  <sodipodi:namedview
     id="namedview2"
     pagecolor="#ffffff"
     bordercolor="#000000"
     borderopacity="0.25"
     inkscape:showpageshadow="2"
     inkscape:pageopacity="0.0"
     inkscape:pagecheckerboard="0"
     inkscape:deskcolor="#d1d1d1"
     inkscape:zoom="1"
     inkscape:cx="306"
     inkscape:cy="335"
     inkscape:window-width="2560"
     inkscape:window-height="1351"
     inkscape:window-x="2551"
     inkscape:window-y="-9"
     inkscape:window-maximized="1"
     inkscape:current-layer="svg2" />
  <path
     id="path2"
     d="M 128.76953 32.019531 A 16 16 0 0 0 112 48 L 112 64 L 96 64 A 64 64 0 0 0 32 128 L 32 140 A 4 4 0 0 0 36 144 L 476 144 A 4 4 0 0 0 480 140 L 480 128 A 64 64 0 0 0 416 64 L 400 64 L 400 48.449219 C 400 39.839227 393.37952 32.449531 384.76953 32.019531 A 16 16 0 0 0 368 48 L 368 64 L 144 64 L 144 48.449219 C 144 39.839227 137.37952 32.449531 128.76953 32.019531 z M 36 176 A 4 4 0 0 0 32 180 L 32 416 A 64 64 0 0 0 96 480 L 416 480 A 64 64 0 0 0 480 416 L 480 180 A 4 4 0 0 0 476 176 L 36 176 z M 257.15625 218 A 15.4231 15.4231 0 0 1 272.57812 233.42383 A 15.4231 15.4231 0 0 1 257.15625 248.8457 A 15.4231 15.4231 0 0 1 241.73242 233.42383 A 15.4231 15.4231 0 0 1 257.15625 218 z M 301.22852 218 A 15.4231 15.4231 0 0 1 316.65234 233.42383 A 15.4231 15.4231 0 0 1 301.22852 248.8457 A 15.4231 15.4231 0 0 1 285.80664 233.42383 A 15.4231 15.4231 0 0 1 301.22852 218 z M 345.30273 218 A 15.4231 15.4231 0 0 1 360.72461 233.42383 A 15.4231 15.4231 0 0 1 345.30273 248.8457 A 15.4231 15.4231 0 0 1 329.87891 233.42383 A 15.4231 15.4231 0 0 1 345.30273 218 z M 389.375 218 A 15.4231 15.4231 0 0 1 404.79883 233.42383 A 15.4231 15.4231 0 0 1 389.375 248.8457 A 15.4231 15.4231 0 0 1 373.95312 233.42383 A 15.4231 15.4231 0 0 1 389.375 218 z M 123.93945 265.28906 A 15.4231 15.4231 0 0 1 139.36328 280.71094 A 15.4231 15.4231 0 0 1 123.93945 296.13477 A 15.4231 15.4231 0 0 1 108.51758 280.71094 A 15.4231 15.4231 0 0 1 123.93945 265.28906 z M 168.01367 265.28906 A 15.4231 15.4231 0 0 1 183.4375 280.71094 A 15.4231 15.4231 0 0 1 168.01367 296.13477 A 15.4231 15.4231 0 0 1 152.58984 280.71094 A 15.4231 15.4231 0 0 1 168.01367 265.28906 z M 212.08594 265.28906 A 15.4231 15.4231 0 0 1 227.50977 280.71094 A 15.4231 15.4231 0 0 1 212.08594 296.13477 A 15.4231 15.4231 0 0 1 196.66406 280.71094 A 15.4231 15.4231 0 0 1 212.08594 265.28906 z M 256.16016 265.28906 A 15.4231 15.4231 0 0 1 271.58398 280.71094 A 15.4231 15.4231 0 0 1 256.16016 296.13477 A 15.4231 15.4231 0 0 1 240.73633 280.71094 A 15.4231 15.4231 0 0 1 256.16016 265.28906 z M 300.23242 265.28906 A 15.4231 15.4231 0 0 1 315.65625 280.71094 A 15.4231 15.4231 0 0 1 300.23242 296.13477 A 15.4231 15.4231 0 0 1 284.81055 280.71094 A 15.4231 15.4231 0 0 1 300.23242 265.28906 z M 344.30664 265.28906 A 15.4231 15.4231 0 0 1 359.72852 280.71094 A 15.4231 15.4231 0 0 1 344.30664 296.13477 A 15.4231 15.4231 0 0 1 328.88281 280.71094 A 15.4231 15.4231 0 0 1 344.30664 265.28906 z M 388.37891 265.28906 A 15.4231 15.4231 0 0 1 403.80273 280.71094 A 15.4231 15.4231 0 0 1 388.37891 296.13477 A 15.4231 15.4231 0 0 1 372.95703 280.71094 A 15.4231 15.4231 0 0 1 388.37891 265.28906 z M 123.42969 312.57617 A 15.4231 15.4231 0 0 1 138.85352 328 A 15.4231 15.4231 0 0 1 123.42969 343.42383 A 15.4231 15.4231 0 0 1 108.00586 328 A 15.4231 15.4231 0 0 1 123.42969 312.57617 z M 167.50391 312.57617 A 15.4231 15.4231 0 0 1 182.92578 328 A 15.4231 15.4231 0 0 1 167.50391 343.42383 A 15.4231 15.4231 0 0 1 152.08008 328 A 15.4231 15.4231 0 0 1 167.50391 312.57617 z M 211.57617 312.57617 A 15.4231 15.4231 0 0 1 227 328 A 15.4231 15.4231 0 0 1 211.57617 343.42383 A 15.4231 15.4231 0 0 1 196.15234 328 A 15.4231 15.4231 0 0 1 211.57617 312.57617 z M 255.65039 312.57617 A 15.4231 15.4231 0 0 1 271.07227 328 A 15.4231 15.4231 0 0 1 255.65039 343.42383 A 15.4231 15.4231 0 0 1 240.22656 328 A 15.4231 15.4231 0 0 1 255.65039 312.57617 z M 299.72266 312.57617 A 15.4231 15.4231 0 0 1 315.14648 328 A 15.4231 15.4231 0 0 1 299.72266 343.42383 A 15.4231 15.4231 0 0 1 284.29883 328 A 15.4231 15.4231 0 0 1 299.72266 312.57617 z M 343.79492 312.57617 A 15.4231 15.4231 0 0 1 359.21875 328 A 15.4231 15.4231 0 0 1 343.79492 343.42383 A 15.4231 15.4231 0 0 1 328.37305 328 A 15.4231 15.4231 0 0 1 343.79492 312.57617 z M 387.86914 312.57617 A 15.4231 15.4231 0 0 1 403.29297 328 A 15.4231 15.4231 0 0 1 387.86914 343.42383 A 15.4231 15.4231 0 0 1 372.44531 328 A 15.4231 15.4231 0 0 1 387.86914 312.57617 z M 122.625 359.86523 A 15.4231 15.4231 0 0 1 138.04688 375.28906 A 15.4231 15.4231 0 0 1 122.625 390.71094 A 15.4231 15.4231 0 0 1 107.20117 375.28906 A 15.4231 15.4231 0 0 1 122.625 359.86523 z M 166.69727 359.86523 A 15.4231 15.4231 0 0 1 182.12109 375.28906 A 15.4231 15.4231 0 0 1 166.69727 390.71094 A 15.4231 15.4231 0 0 1 151.27539 375.28906 A 15.4231 15.4231 0 0 1 166.69727 359.86523 z M 210.77148 359.86523 A 15.4231 15.4231 0 0 1 226.19336 375.28906 A 15.4231 15.4231 0 0 1 210.77148 390.71094 A 15.4231 15.4231 0 0 1 195.34766 375.28906 A 15.4231 15.4231 0 0 1 210.77148 359.86523 z M 254.84375 359.86523 A 15.4231 15.4231 0 0 1 270.26758 375.28906 A 15.4231 15.4231 0 0 1 254.84375 390.71094 A 15.4231 15.4231 0 0 1 239.42188 375.28906 A 15.4231 15.4231 0 0 1 254.84375 359.86523 z M 298.91797 359.86523 A 15.4231 15.4231 0 0 1 314.33984 375.28906 A 15.4231 15.4231 0 0 1 298.91797 390.71094 A 15.4231 15.4231 0 0 1 283.49414 375.28906 A 15.4231 15.4231 0 0 1 298.91797 359.86523 z M 342.99023 359.86523 A 15.4231 15.4231 0 0 1 358.41406 375.28906 A 15.4231 15.4231 0 0 1 342.99023 390.71094 A 15.4231 15.4231 0 0 1 327.56836 375.28906 A 15.4231 15.4231 0 0 1 342.99023 359.86523 z M 387.06445 359.86523 A 15.4231 15.4231 0 0 1 402.48633 375.28906 A 15.4231 15.4231 0 0 1 387.06445 390.71094 A 15.4231 15.4231 0 0 1 371.64062 375.28906 A 15.4231 15.4231 0 0 1 387.06445 359.86523 z M 122.81836 407.1543 A 15.4231 15.4231 0 0 1 138.24219 422.57617 A 15.4231 15.4231 0 0 1 122.81836 438 A 15.4231 15.4231 0 0 1 107.39648 422.57617 A 15.4231 15.4231 0 0 1 122.81836 407.1543 z M 166.89258 407.1543 A 15.4231 15.4231 0 0 1 182.31445 422.57617 A 15.4231 15.4231 0 0 1 166.89258 438 A 15.4231 15.4231 0 0 1 151.46875 422.57617 A 15.4231 15.4231 0 0 1 166.89258 407.1543 z M 210.96484 407.1543 A 15.4231 15.4231 0 0 1 226.38867 422.57617 A 15.4231 15.4231 0 0 1 210.96484 438 A 15.4231 15.4231 0 0 1 195.54297 422.57617 A 15.4231 15.4231 0 0 1 210.96484 407.1543 z M 255.03906 407.1543 A 15.4231 15.4231 0 0 1 270.46094 422.57617 A 15.4231 15.4231 0 0 1 255.03906 438 A 15.4231 15.4231 0 0 1 239.61523 422.57617 A 15.4231 15.4231 0 0 1 255.03906 407.1543 z M 299.11133 407.1543 A 15.4231 15.4231 0 0 1 314.53516 422.57617 A 15.4231 15.4231 0 0 1 299.11133 438 A 15.4231 15.4231 0 0 1 283.6875 422.57617 A 15.4231 15.4231 0 0 1 299.11133 407.1543 z " />
  <g
     id="g1"
     transform="matrix(0.99198863,0,0,0.99198863,2.0509145,2.6277218)" />
</svg>
