<?xml version="1.0" encoding="UTF-8" standalone="no"?>
<svg
   viewBox="0 0 512 512"
   version="1.1"
   id="svg2"
   sodipodi:docname="calendar-year.svg"
   inkscape:version="1.3 (0e150ed6c4, 2023-07-21)"
   xmlns:inkscape="http://www.inkscape.org/namespaces/inkscape"
   xmlns:sodipodi="http://sodipodi.sourceforge.net/DTD/sodipodi-0.dtd"
   xmlns="http://www.w3.org/2000/svg"
   xmlns:svg="http://www.w3.org/2000/svg">
  <defs
     id="defs2" />
  <sodipodi:namedview
     id="namedview2"
     pagecolor="#ffffff"
     bordercolor="#000000"
     borderopacity="0.25"
     inkscape:showpageshadow="2"
     inkscape:pageopacity="0.0"
     inkscape:pagecheckerboard="0"
     inkscape:deskcolor="#d1d1d1"
     inkscape:zoom="1"
     inkscape:cx="291"
     inkscape:cy="407"
     inkscape:window-width="2560"
     inkscape:window-height="1351"
     inkscape:window-x="2551"
     inkscape:window-y="-9"
     inkscape:window-maximized="1"
     inkscape:current-layer="svg2" />
  <path
     id="path2"
     style="display:inline"
     d="M 128.76953 32.019531 A 16 16 0 0 0 112 48 L 112 64 L 96 64 A 64 64 0 0 0 32 128 L 32 140 A 4 4 0 0 0 36 144 L 476 144 A 4 4 0 0 0 480 140 L 480 128 A 64 64 0 0 0 416 64 L 400 64 L 400 48.449219 C 400 39.839227 393.37952 32.449531 384.76953 32.019531 A 16 16 0 0 0 368 48 L 368 64 L 144 64 L 144 48.449219 C 144 39.839227 137.37952 32.449531 128.76953 32.019531 z M 36 176 A 4 4 0 0 0 32 180 L 32 416 A 64 64 0 0 0 96 480 L 416 480 A 64 64 0 0 0 480 416 L 480 180 A 4 4 0 0 0 476 176 L 36 176 z M 256 218 C 259.48795 218 262.9755 219.33097 265.63672 221.99219 L 304.57422 260.92969 C 309.89704 266.25195 309.89704 274.88279 304.57422 280.20508 L 265.63672 319.14258 C 260.31427 324.46502 251.68573 324.46502 246.36328 319.14258 C 241.04085 313.82013 241.04086 305.18961 246.36328 299.86719 L 263.88477 282.3457 C 261.56797 282.2483 258.92035 282.24805 256 282.24805 C 230.01438 282.24805 206.58629 297.90105 196.64258 321.9082 C 186.69889 345.91532 192.19773 373.54928 210.57227 391.92383 C 228.94682 410.29835 256.57882 415.79525 280.58594 405.85156 C 304.59309 395.90784 320.24805 372.48172 320.24805 346.49609 C 320.24805 338.96942 326.34833 332.86719 333.875 332.86719 C 341.40167 332.86719 347.50391 338.96942 347.50391 346.49609 C 347.44491 397.00785 306.51178 437.94101 256 438 C 205.46375 438 164.49609 397.03232 164.49609 346.49609 C 164.49609 295.95987 205.46375 254.99219 256 254.99219 L 260.09766 254.99219 L 246.36328 241.26562 C 241.04086 235.94319 241.04085 227.31464 246.36328 221.99219 C 249.0245 219.33097 252.51205 218 256 218 z " />
</svg>
