<?xml version="1.0" encoding="UTF-8" standalone="no"?>
<svg
   viewBox="0 0 512 512"
   version="1.1"
   id="svg2"
   sodipodi:docname="calendar-3M.svg"
   inkscape:version="1.3 (0e150ed6c4, 2023-07-21)"
   xmlns:inkscape="http://www.inkscape.org/namespaces/inkscape"
   xmlns:sodipodi="http://sodipodi.sourceforge.net/DTD/sodipodi-0.dtd"
   xmlns="http://www.w3.org/2000/svg"
   xmlns:svg="http://www.w3.org/2000/svg">
  <defs
     id="defs2" />
  <sodipodi:namedview
     id="namedview2"
     pagecolor="#ffffff"
     bordercolor="#000000"
     borderopacity="0.25"
     inkscape:showpageshadow="2"
     inkscape:pageopacity="0.0"
     inkscape:pagecheckerboard="0"
     inkscape:deskcolor="#d1d1d1"
     inkscape:zoom="0.66113281"
     inkscape:cx="-72.602659"
     inkscape:cy="198.14476"
     inkscape:window-width="2560"
     inkscape:window-height="1351"
     inkscape:window-x="2551"
     inkscape:window-y="-9"
     inkscape:window-maximized="1"
     inkscape:current-layer="svg2" />
  <path
     id="path2"
     d="M 128.76953 32.019531 A 16 16 0 0 0 112 48 L 112 64 L 96 64 A 64 64 0 0 0 32 128 L 32 140 A 4 4 0 0 0 36 144 L 476 144 A 4 4 0 0 0 480 140 L 480 128 A 64 64 0 0 0 416 64 L 400 64 L 400 48.449219 C 400 39.839227 393.37952 32.449531 384.76953 32.019531 A 16 16 0 0 0 368 48 L 368 64 L 144 64 L 144 48.449219 C 144 39.839227 137.37952 32.449531 128.76953 32.019531 z M 36 176 A 4 4 0 0 0 32 180 L 32 416 A 64 64 0 0 0 96 480 L 416 480 A 64 64 0 0 0 480 416 L 480 180 A 4 4 0 0 0 476 176 L 36 176 z M 145.74023 230.57812 C 154.51589 230.57812 162.68297 232.35753 170.24219 235.91992 C 177.8883 239.48231 184.05612 244.61043 188.74805 251.30078 C 193.43998 257.90424 195.78711 265.85341 195.78711 275.15039 C 195.78711 282.01451 194.35362 288.31425 191.48633 294.04883 C 188.61904 299.69652 184.88239 304.82269 180.27734 309.42773 C 175.6723 313.94589 170.5901 317.94246 165.0293 321.41797 C 171.80653 324.89347 178.19225 329.15192 184.1875 334.19141 C 190.18274 339.144 195.09101 344.87796 198.91406 351.39453 C 202.73712 357.82422 204.64844 364.99167 204.64844 372.89844 C 204.64844 383.58561 201.82543 392.84027 196.17773 400.66016 C 190.53004 408.48004 183.18865 414.56187 174.15234 418.90625 C 165.20292 423.16375 155.73231 425.29297 145.74023 425.29297 C 124.9741 425.29297 107.72629 418.21151 93.998047 404.04883 C 91.999632 401.87664 91 399.44352 91 396.75 C 91 393.70893 91.999632 391.10187 93.998047 388.92969 C 96.08335 386.7575 98.646432 385.67188 101.6875 385.67188 C 104.72856 385.67188 107.37764 386.84544 109.63672 389.19141 C 118.9337 398.74904 130.96934 403.52734 145.74023 403.52734 C 151.38793 403.52734 156.77402 402.22382 161.90039 399.61719 C 167.02676 397.01056 171.19727 393.40388 174.41211 388.79883 C 177.62695 384.19379 179.23438 378.89368 179.23438 372.89844 C 179.23438 363.42769 174.10821 354.78278 163.85547 346.96289 C 155.34048 340.5332 145.91384 335.62494 135.57422 332.23633 C 130.27407 330.49858 127.62305 327.23975 127.62305 322.46094 C 127.62305 320.11497 128.27481 317.98575 129.57812 316.07422 C 130.96832 314.16269 132.74968 312.81715 134.92188 312.03516 C 140.30891 310.12363 145.69696 307.51657 151.08398 304.21484 C 156.47102 300.82623 161.03142 296.69774 164.76758 291.83203 C 168.50375 286.96633 170.37305 281.4063 170.37305 275.15039 C 170.37305 268.19938 167.93993 262.68137 163.07422 258.59766 C 158.20852 254.51394 152.43058 252.47266 145.74023 252.47266 C 140.3532 252.47266 134.79122 253.47229 129.05664 255.4707 C 123.40895 257.38223 118.5427 260.29318 114.45898 264.20312 C 112.28679 266.28842 109.81165 267.33008 107.03125 267.33008 C 103.99019 267.33008 101.38313 266.28842 99.210938 264.20312 C 97.125635 262.11782 96.083984 259.59676 96.083984 256.64258 C 96.083984 253.68839 97.169606 251.0833 99.341797 248.82422 C 105.25015 243.00275 112.4176 238.52835 120.8457 235.40039 C 129.36069 232.18555 137.65969 230.57813 145.74023 230.57812 z M 256.39062 230.70703 C 260.12679 230.70703 263.16771 232.4024 265.51367 235.79102 L 331.5918 332.75781 L 400.92773 235.5293 C 403.18681 232.31445 406.14174 230.70703 409.79102 230.70703 C 412.91897 230.70703 415.57 231.79265 417.74219 233.96484 C 419.91438 236.13703 421 238.78807 421 241.91602 L 421 414.47461 C 421 418.037 419.61048 420.77402 416.83008 422.68555 C 414.13656 424.51019 411.18164 425.42188 407.9668 425.42188 C 404.83885 425.42188 401.88392 424.51019 399.10352 422.68555 C 396.41 420.77402 395.06445 418.037 395.06445 414.47461 L 395.06445 282.05859 L 338.5 361.42969 C 336.32781 364.55764 333.2869 366.12109 329.37695 366.12109 C 325.5539 366.0342 322.555 364.38476 320.38281 361.16992 L 267.59961 283.62305 L 267.59961 414.21484 C 267.59961 417.25591 266.51399 419.90498 264.3418 422.16406 C 262.16961 424.33625 259.51858 425.42188 256.39062 425.42188 C 253.34956 425.42188 250.70048 424.33625 248.44141 422.16406 C 246.26922 419.90498 245.18164 417.25591 245.18164 414.21484 L 245.18164 241.91602 C 245.18164 238.78807 246.26922 236.13703 248.44141 233.96484 C 250.70048 231.79265 253.34956 230.70703 256.39062 230.70703 z " />
</svg>
