<?xml version="1.0" encoding="UTF-8" standalone="no"?>
<svg
   viewBox="0 0 512 512"
   version="1.1"
   id="svg2"
   sodipodi:docname="calendar-7.svg"
   inkscape:version="1.3 (0e150ed6c4, 2023-07-21)"
   xmlns:inkscape="http://www.inkscape.org/namespaces/inkscape"
   xmlns:sodipodi="http://sodipodi.sourceforge.net/DTD/sodipodi-0.dtd"
   xmlns="http://www.w3.org/2000/svg"
   xmlns:svg="http://www.w3.org/2000/svg">
  <defs
     id="defs2" />
  <sodipodi:namedview
     id="namedview2"
     pagecolor="#ffffff"
     bordercolor="#000000"
     borderopacity="0.25"
     inkscape:showpageshadow="2"
     inkscape:pageopacity="0.0"
     inkscape:pagecheckerboard="0"
     inkscape:deskcolor="#d1d1d1"
     inkscape:zoom="1"
     inkscape:cx="159"
     inkscape:cy="314"
     inkscape:window-width="2560"
     inkscape:window-height="1351"
     inkscape:window-x="2551"
     inkscape:window-y="-9"
     inkscape:window-maximized="1"
     inkscape:current-layer="svg2" />
  <path
     id="path2"
     d="M 128.76953 32.019531 A 16 16 0 0 0 112 48 L 112 64 L 96 64 A 64 64 0 0 0 32 128 L 32 140 A 4 4 0 0 0 36 144 L 476 144 A 4 4 0 0 0 480 140 L 480 128 A 64 64 0 0 0 416 64 L 400 64 L 400 48.449219 C 400 39.839227 393.37952 32.449531 384.76953 32.019531 A 16 16 0 0 0 368 48 L 368 64 L 144 64 L 144 48.449219 C 144 39.839227 137.37952 32.449531 128.76953 32.019531 z M 36 176 A 4 4 0 0 0 32 180 L 32 416 A 64 64 0 0 0 96 480 L 416 480 A 64 64 0 0 0 480 416 L 480 180 A 4 4 0 0 0 476 176 L 36 176 z M 99.279297 262.04883 A 18.281 18.281 0 0 1 117.56055 280.33008 A 18.281 18.281 0 0 1 99.279297 298.61133 A 18.281 18.281 0 0 1 81 280.33008 A 18.281 18.281 0 0 1 99.279297 262.04883 z M 151.51953 262.04883 A 18.281 18.281 0 0 1 169.80078 280.33008 A 18.281 18.281 0 0 1 151.51953 298.61133 A 18.281 18.281 0 0 1 133.23828 280.33008 A 18.281 18.281 0 0 1 151.51953 262.04883 z M 203.75977 262.04883 A 18.281 18.281 0 0 1 222.04102 280.33008 A 18.281 18.281 0 0 1 203.75977 298.61133 A 18.281 18.281 0 0 1 185.47852 280.33008 A 18.281 18.281 0 0 1 203.75977 262.04883 z M 256 262.04883 A 18.281 18.281 0 0 1 274.28125 280.33008 A 18.281 18.281 0 0 1 256 298.61133 A 18.281 18.281 0 0 1 237.71875 280.33008 A 18.281 18.281 0 0 1 256 262.04883 z M 308.24023 262.04883 A 18.281 18.281 0 0 1 326.52148 280.33008 A 18.281 18.281 0 0 1 308.24023 298.61133 A 18.281 18.281 0 0 1 289.95898 280.33008 A 18.281 18.281 0 0 1 308.24023 262.04883 z M 360.48047 262.04883 A 18.281 18.281 0 0 1 378.76172 280.33008 A 18.281 18.281 0 0 1 360.48047 298.61133 A 18.281 18.281 0 0 1 342.19922 280.33008 A 18.281 18.281 0 0 1 360.48047 262.04883 z M 412.7207 262.04883 A 18.281 18.281 0 0 1 431 280.33008 A 18.281 18.281 0 0 1 412.7207 298.61133 A 18.281 18.281 0 0 1 394.43945 280.33008 A 18.281 18.281 0 0 1 412.7207 262.04883 z "
     inkscape:label="path2" />
</svg>
